<svg width="16" height="18" viewBox="0 0 16 18" fill="none" xmlns="http://www.w3.org/2000/svg">
<path d="M7.38017 16.9937L7.3607 16.9929H7.34122C4.25479 16.9929 1.62598 14.2702 1.62598 10.749C1.62598 9.07042 2.70597 6.59878 4.34259 4.48678C5.14496 3.45137 6.03931 2.55859 6.92349 1.93348C7.299 1.66799 7.65747 1.46136 7.99405 1.31077C7.86772 2.2789 7.83804 3.28062 7.91382 4.21151C8.0265 5.59556 8.39226 7.07748 9.27485 7.95361L9.42245 8.10013L9.61623 8.17565C10.0976 8.36325 10.6468 8.41026 11.1551 8.13461C11.6195 7.88276 11.8577 7.46056 11.9856 7.16046C12.0408 7.03096 12.0866 6.89697 12.1252 6.76673C12.1346 6.78067 12.1441 6.7948 12.1538 6.80914C12.4835 7.30052 12.9001 7.98245 13.4276 8.90761C15.3692 12.3128 12.7328 17.2023 7.38017 16.9937ZM11.4153 5.88537C11.415 5.88411 11.4242 5.88972 11.4436 5.90602C11.4254 5.89479 11.4156 5.88664 11.4153 5.88537Z" stroke="#FF3A44" stroke-width="2"/>
<path d="M7.85757 16.9974L7.83962 16.9968H7.82166C6.54291 16.9968 5.51562 15.9672 5.51562 14.7087C5.51562 14.0614 5.89755 12.8894 6.55532 11.8413C6.73159 11.5605 6.91679 11.3065 7.10376 11.0881C7.15319 11.6937 7.31032 12.3401 7.65246 12.8223C7.86829 13.1265 8.16157 13.4005 8.38758 13.6117C8.4431 13.6636 8.49457 13.7116 8.53983 13.7555C8.80564 14.0127 9.0919 14.3203 9.39612 14.8122C9.63815 15.2036 9.71273 15.8149 9.51891 16.2654C9.43139 16.4688 9.28909 16.6435 9.06277 16.7722C8.83014 16.9044 8.45301 17.0188 7.85757 16.9974Z" stroke="#FF3A44" stroke-width="2"/>
</svg>
