<svg width="129" height="48" viewBox="0 0 129 48" fill="none" xmlns="http://www.w3.org/2000/svg">
<ellipse cx="23.88" cy="24" rx="23.88" ry="24" fill="#00A9D0"/>
<mask id="mask0_202_653" style="mask-type:alpha" maskUnits="userSpaceOnUse" x="0" y="0" width="48" height="48">
<g style="mix-blend-mode:overlay">
<ellipse cx="23.88" cy="24" rx="23.88" ry="24" fill="#0E4860"/>
<ellipse cx="23.88" cy="24" rx="23.88" ry="24" fill="#04A4CF"/>
</g>
</mask>
<g mask="url(#mask0_202_653)">
<path d="M23.9473 0L23.9473 27.1713" stroke="white" stroke-width="2.4517"/>
</g>
<circle cx="23.9473" cy="27.6904" r="3.11478" fill="white"/>
<path d="M28.0669 22.5043L32.5983 16.2647" stroke="white" stroke-width="2.07652" stroke-linecap="round"/>
<line x1="30.1312" y1="25.8548" x2="38.1221" y2="22.6489" stroke="white" stroke-width="2.07652" stroke-linecap="round"/>
<line x1="9.82776" y1="22.649" x2="17.8185" y2="25.8552" stroke="white" stroke-width="2.07652" stroke-linecap="round"/>
<circle cx="34.6933" cy="13.4143" r="1.29783" fill="white"/>
<path d="M15.4238 16.1916L19.8568 22.5015" stroke="white" stroke-width="2.07652" stroke-linecap="round"/>
<circle cx="13.4546" cy="13.2522" r="1.29783" transform="rotate(-70.63 13.4546 13.2522)" fill="white"/>
<path d="M69.9634 26.5092C68.0896 26.5092 66.391 26.1064 64.8674 25.3009C63.3614 24.4778 62.1706 23.3483 61.295 21.9123C60.4369 20.4588 60.0079 18.8214 60.0079 17.0002C60.0079 15.179 60.4369 13.5503 61.295 12.1144C62.1706 10.6609 63.3614 9.53133 64.8674 8.72578C66.391 7.90271 68.0984 7.49118 69.9897 7.49118C71.5833 7.49118 73.0193 7.77137 74.2976 8.33176C75.5935 8.89214 76.6793 9.69769 77.5549 10.7484L74.823 13.2701C73.5797 11.8342 72.0386 11.1162 70.1998 11.1162C69.0616 11.1162 68.0459 11.3701 67.1527 11.8779C66.2596 12.3683 65.5592 13.06 65.0513 13.9531C64.561 14.8462 64.3158 15.8619 64.3158 17.0002C64.3158 18.1385 64.561 19.1542 65.0513 20.0473C65.5592 20.9404 66.2596 21.6409 67.1527 22.1487C68.0459 22.6391 69.0616 22.8842 70.1998 22.8842C72.0386 22.8842 73.5797 22.1575 74.823 20.704L77.5549 23.2257C76.6793 24.2939 75.5935 25.1083 74.2976 25.6686C73.0018 26.229 71.557 26.5092 69.9634 26.5092ZM97.2926 7.8064V26.194H93.799L84.6314 15.0301V26.194H80.4286V7.8064H83.9485L93.0897 18.9703V7.8064H97.2926ZM110.443 26.5092C108.569 26.5092 106.87 26.1064 105.347 25.3009C103.841 24.4778 102.65 23.3483 101.774 21.9123C100.916 20.4588 100.487 18.8214 100.487 17.0002C100.487 15.179 100.916 13.5503 101.774 12.1144C102.65 10.6609 103.841 9.53133 105.347 8.72578C106.87 7.90271 108.578 7.49118 110.469 7.49118C112.063 7.49118 113.499 7.77137 114.777 8.33176C116.073 8.89214 117.159 9.69769 118.034 10.7484L115.302 13.2701C114.059 11.8342 112.518 11.1162 110.679 11.1162C109.541 11.1162 108.525 11.3701 107.632 11.8779C106.739 12.3683 106.039 13.06 105.531 13.9531C105.04 14.8462 104.795 15.8619 104.795 17.0002C104.795 18.1385 105.04 19.1542 105.531 20.0473C106.039 20.9404 106.739 21.6409 107.632 22.1487C108.525 22.6391 109.541 22.8842 110.679 22.8842C112.518 22.8842 114.059 22.1575 115.302 20.704L118.034 23.2257C117.159 24.2939 116.073 25.1083 114.777 25.6686C113.481 26.229 112.036 26.5092 110.443 26.5092Z" fill="#404546"/>
<path d="M62.7954 40.0858C62.1215 40.0858 61.4679 39.9964 60.8346 39.8178C60.2094 39.6311 59.706 39.3916 59.3244 39.0993L59.9942 37.6135C60.3596 37.8814 60.794 38.0965 61.2974 38.2589C61.8008 38.4213 62.3042 38.5025 62.8075 38.5025C63.3678 38.5025 63.7818 38.4213 64.0498 38.2589C64.3177 38.0884 64.4517 37.8651 64.4517 37.5891C64.4517 37.3861 64.3705 37.2197 64.2081 37.0898C64.0538 36.9517 63.8509 36.8421 63.5992 36.7609C63.3556 36.6797 63.0227 36.5904 62.6005 36.493C61.951 36.3387 61.4192 36.1845 61.0051 36.0302C60.591 35.8759 60.2338 35.6283 59.9333 35.2873C59.6411 34.9463 59.4949 34.4916 59.4949 33.9233C59.4949 33.428 59.6289 32.9815 59.8968 32.5836C60.1647 32.1776 60.5666 31.8569 61.1025 31.6215C61.6465 31.386 62.3082 31.2683 63.0877 31.2683C63.6316 31.2683 64.1634 31.3333 64.6831 31.4632C65.2027 31.5931 65.6574 31.7798 66.0471 32.0234L65.4382 33.5214C64.6506 33.0748 63.863 32.8515 63.0755 32.8515C62.5234 32.8515 62.1134 32.9409 61.8454 33.1195C61.5856 33.2981 61.4557 33.5336 61.4557 33.8258C61.4557 34.1181 61.6059 34.3374 61.9063 34.4835C62.2148 34.6215 62.6817 34.7596 63.3069 34.8976C63.9564 35.0518 64.4882 35.2061 64.9023 35.3604C65.3164 35.5146 65.6696 35.7582 65.9619 36.0911C66.2623 36.424 66.4125 36.8746 66.4125 37.443C66.4125 37.9301 66.2744 38.3767 65.9984 38.7826C65.7305 39.1805 65.3245 39.4971 64.7805 39.7326C64.2365 39.968 63.5748 40.0858 62.7954 40.0858ZM70.7444 40.037C70.0543 40.037 69.4332 39.895 68.8811 39.6108C68.3371 39.3185 67.9108 38.9166 67.6023 38.4051C67.2937 37.8936 67.1395 37.313 67.1395 36.6635C67.1395 36.014 67.2937 35.4334 67.6023 34.9219C67.9108 34.4104 68.3371 34.0126 68.8811 33.7284C69.4332 33.4361 70.0543 33.29 70.7444 33.29C71.4345 33.29 72.0516 33.4361 72.5956 33.7284C73.1396 34.0126 73.5658 34.4104 73.8744 34.9219C74.1829 35.4334 74.3372 36.014 74.3372 36.6635C74.3372 37.313 74.1829 37.8936 73.8744 38.4051C73.5658 38.9166 73.1396 39.3185 72.5956 39.6108C72.0516 39.895 71.4345 40.037 70.7444 40.037ZM70.7444 38.4781C71.2316 38.4781 71.6294 38.3158 71.9379 37.991C72.2546 37.6581 72.4129 37.2156 72.4129 36.6635C72.4129 36.1114 72.2546 35.673 71.9379 35.3482C71.6294 35.0153 71.2316 34.8489 70.7444 34.8489C70.2573 34.8489 69.8554 35.0153 69.5387 35.3482C69.2221 35.673 69.0637 36.1114 69.0637 36.6635C69.0637 37.2156 69.2221 37.6581 69.5387 37.991C69.8554 38.3158 70.2573 38.4781 70.7444 38.4781ZM75.6071 30.9029H77.507V39.9396H75.6071V30.9029ZM85.8711 33.3874V39.9396H84.0687V39.1602C83.817 39.4443 83.5166 39.6636 83.1675 39.8178C82.8183 39.964 82.4408 40.037 82.0348 40.037C81.1742 40.037 80.4922 39.7894 79.9888 39.2941C79.4854 38.7989 79.2337 38.0641 79.2337 37.0898V33.3874H81.1336V36.8097C81.1336 37.8651 81.5761 38.3929 82.4611 38.3929C82.9158 38.3929 83.2811 38.2468 83.5572 37.9545C83.8332 37.6541 83.9713 37.2116 83.9713 36.627V33.3874H85.8711ZM91.8573 39.623C91.6706 39.761 91.4392 39.8665 91.1631 39.9396C90.8952 40.0046 90.611 40.037 90.3106 40.037C89.5312 40.037 88.9263 39.8381 88.496 39.4403C88.0738 39.0424 87.8627 38.4579 87.8627 37.6865V34.995H86.8518V33.5336H87.8627V31.9381H89.7626V33.5336H91.3945V34.995H89.7626V37.6622C89.7626 37.9382 89.8316 38.1534 89.9696 38.3076C90.1157 38.4538 90.3187 38.5269 90.5785 38.5269C90.8789 38.5269 91.1347 38.4457 91.3458 38.2833L91.8573 39.623ZM92.9238 33.3874H94.8237V39.9396H92.9238V33.3874ZM93.8738 32.474C93.5246 32.474 93.2405 32.3725 93.0212 32.1695C92.802 31.9666 92.6924 31.7149 92.6924 31.4144C92.6924 31.114 92.802 30.8623 93.0212 30.6594C93.2405 30.4564 93.5246 30.3549 93.8738 30.3549C94.2229 30.3549 94.5071 30.4523 94.7263 30.6472C94.9455 30.842 95.0551 31.0856 95.0551 31.3779C95.0551 31.6946 94.9455 31.9584 94.7263 32.1695C94.5071 32.3725 94.2229 32.474 93.8738 32.474ZM99.7047 40.037C99.0146 40.037 98.3935 39.895 97.8414 39.6108C97.2974 39.3185 96.8711 38.9166 96.5626 38.4051C96.2541 37.8936 96.0998 37.313 96.0998 36.6635C96.0998 36.014 96.2541 35.4334 96.5626 34.9219C96.8711 34.4104 97.2974 34.0126 97.8414 33.7284C98.3935 33.4361 99.0146 33.29 99.7047 33.29C100.395 33.29 101.012 33.4361 101.556 33.7284C102.1 34.0126 102.526 34.4104 102.835 34.9219C103.143 35.4334 103.297 36.014 103.297 36.6635C103.297 37.313 103.143 37.8936 102.835 38.4051C102.526 38.9166 102.1 39.3185 101.556 39.6108C101.012 39.895 100.395 40.037 99.7047 40.037ZM99.7047 38.4781C100.192 38.4781 100.59 38.3158 100.898 37.991C101.215 37.6581 101.373 37.2156 101.373 36.6635C101.373 36.1114 101.215 35.673 100.898 35.3482C100.59 35.0153 100.192 34.8489 99.7047 34.8489C99.2176 34.8489 98.8157 35.0153 98.499 35.3482C98.1824 35.673 98.0241 36.1114 98.0241 36.6635C98.0241 37.2156 98.1824 37.6581 98.499 37.991C98.8157 38.3158 99.2176 38.4781 99.7047 38.4781ZM108.55 33.29C109.362 33.29 110.015 33.5336 110.511 34.0207C111.014 34.5079 111.266 35.2305 111.266 36.1885V39.9396H109.366V36.4808C109.366 35.9612 109.252 35.5755 109.025 35.3238C108.798 35.064 108.469 34.9341 108.038 34.9341C107.559 34.9341 107.178 35.0843 106.894 35.3847C106.609 35.677 106.467 36.1155 106.467 36.7V39.9396H104.567V33.3874H106.382V34.1547C106.634 33.8786 106.946 33.6675 107.32 33.5214C107.693 33.3671 108.103 33.29 108.55 33.29ZM115.192 40.037C114.648 40.037 114.116 39.9721 113.597 39.8422C113.077 39.7041 112.663 39.5336 112.355 39.3307L112.988 37.9666C113.28 38.1534 113.633 38.3076 114.047 38.4294C114.462 38.5431 114.868 38.5999 115.265 38.5999C116.069 38.5999 116.471 38.401 116.471 38.0032C116.471 37.8164 116.361 37.6825 116.142 37.6013C115.923 37.5201 115.586 37.4511 115.131 37.3942C114.596 37.313 114.153 37.2197 113.804 37.1141C113.455 37.0086 113.15 36.8218 112.89 36.5539C112.639 36.286 112.513 35.9044 112.513 35.4091C112.513 34.995 112.631 34.6296 112.866 34.313C113.11 33.9882 113.459 33.7365 113.914 33.5579C114.376 33.3793 114.92 33.29 115.545 33.29C116.008 33.29 116.467 33.3428 116.922 33.4483C117.384 33.5457 117.766 33.6838 118.066 33.8624L117.433 35.2142C116.857 34.8895 116.227 34.7271 115.545 34.7271C115.14 34.7271 114.835 34.7839 114.632 34.8976C114.429 35.0113 114.328 35.1574 114.328 35.336C114.328 35.539 114.437 35.6811 114.656 35.7623C114.876 35.8435 115.225 35.9206 115.704 35.9937C116.24 36.083 116.678 36.1804 117.019 36.286C117.36 36.3834 117.656 36.5661 117.908 36.834C118.16 37.1019 118.286 37.4754 118.286 37.9545C118.286 38.3604 118.164 38.7217 117.92 39.0384C117.677 39.355 117.32 39.6027 116.849 39.7813C116.386 39.9518 115.834 40.037 115.192 40.037Z" fill="#404546"/>
<path d="M30.5666 32.9544C30.5666 34.7277 29.8622 36.4285 28.6082 37.6824C27.3543 38.9363 25.6536 39.6408 23.8802 39.6408C22.1069 39.6408 20.4062 38.9363 19.1522 37.6824C17.8983 36.4285 17.1938 34.7278 17.1938 32.9544L19.6514 32.9544C19.6514 34.076 20.0969 35.1516 20.89 35.9447C21.6831 36.7377 22.7587 37.1833 23.8802 37.1833C25.0018 37.1833 26.0774 36.7377 26.8705 35.9447C27.6636 35.1516 28.1091 34.076 28.1091 32.9544H30.5666Z" fill="white"/>
<path d="M17.4326 32.9544V34.626L15.0617 34.2136C14.7758 34.1638 14.567 33.9157 14.567 33.6254V32.9544H17.4326Z" fill="white"/>
<path d="M30.3276 32.9544V34.5808L33.1155 34.1709C33.4085 34.1278 33.6256 33.8764 33.6256 33.5802V32.9544H30.3276Z" fill="white"/>
<path d="M22.2085 39.402H25.5517L25.1452 41.7716C25.096 42.0581 24.8475 42.2676 24.5568 42.2676H23.2034C22.9127 42.2676 22.6642 42.0581 22.615 41.7716L22.2085 39.402Z" fill="white"/>
<path d="M27.2231 38.6616L29.5871 36.2976L30.9752 38.2606C31.1431 38.498 31.1155 38.8218 30.9099 39.0274L29.953 39.9843C29.7474 40.1899 29.4235 40.2175 29.1861 40.0496L27.2231 38.6616Z" fill="white"/>
<path d="M18.1455 36.2976L20.5095 38.6616L18.5465 40.0497C18.3091 40.2175 17.9853 40.19 17.7797 39.9844L16.8228 39.0274C16.6172 38.8218 16.5896 38.498 16.7574 38.2606L18.1455 36.2976Z" fill="white"/>
</svg>
