<svg width="15" height="15" viewBox="0 0 15 15" fill="none" xmlns="http://www.w3.org/2000/svg">
<path d="M6.60513 0.794182C6.97333 0.055952 8.02667 0.0559506 8.39487 0.794181L9.89287 3.79761C10.0392 4.09101 10.3201 4.29404 10.6446 4.34098L13.9788 4.8233C14.802 4.94237 15.1285 5.95575 14.5297 6.53296L12.1319 8.8443C11.8931 9.07452 11.7839 9.40818 11.8406 9.73503L12.4081 13.0096C12.5494 13.8251 11.6953 14.4495 10.9611 14.0674L7.96167 12.5063C7.67231 12.3557 7.32769 12.3557 7.03833 12.5063L4.03893 14.0674C3.3047 14.4495 2.45061 13.8251 2.59195 13.0096L3.15943 9.73503C3.21607 9.40818 3.10695 9.07452 2.86812 8.8443L0.470318 6.53296C-0.128488 5.95575 0.198016 4.94237 1.02116 4.8233L4.35543 4.34098C4.67992 4.29404 4.9608 4.09101 5.10714 3.79761L6.60513 0.794182Z" fill="#F1D854" fill-opacity="0.7"/>
</svg>
