<?xml version="1.0" standalone="no"?>
<!DOCTYPE svg PUBLIC "-//W3C//DTD SVG 20010904//EN"
 "http://www.w3.org/TR/2001/REC-SVG-20010904/DTD/svg10.dtd">
<svg version="1.0" xmlns="http://www.w3.org/2000/svg"
 width="806.000000pt" height="806.000000pt" viewBox="0 0 806.000000 806.000000"
 preserveAspectRatio="xMidYMid meet">
<metadata>
Created by potrace 1.14, written by Peter Selinger 2001-2017
</metadata>
<g transform="translate(0.000000,806.000000) scale(0.100000,-0.100000)"
fill="#000000" stroke="none">
<path d="M3788 8055 c-1 -2 -37 -6 -79 -9 -87 -6 -173 -16 -209 -22 -14 -3
-38 -6 -55 -8 -39 -5 -129 -20 -172 -30 -11 -2 -42 -8 -67 -11 -25 -4 -46 -12
-46 -17 0 -5 -4 -6 -10 -3 -8 5 -231 -48 -250 -60 -3 -2 -17 -6 -31 -9 -52
-10 -356 -122 -374 -138 -5 -4 -15 -8 -22 -8 -7 0 -70 -27 -140 -61 -70 -33
-129 -59 -129 -57 -1 2 -10 -5 -20 -14 -11 -9 -30 -21 -44 -27 -14 -6 -47 -24
-75 -41 -27 -16 -57 -33 -65 -37 -26 -11 -242 -153 -300 -196 -136 -101 -191
-144 -239 -187 -10 -8 -51 -44 -91 -80 -159 -139 -325 -316 -470 -501 -126
-160 -160 -206 -160 -217 0 -6 -4 -12 -8 -14 -9 -3 -152 -224 -152 -233 0 -3
-11 -23 -25 -45 -34 -54 -166 -320 -196 -395 -13 -33 -26 -62 -29 -65 -3 -3
-7 -14 -8 -25 -2 -11 -8 -24 -12 -30 -22 -27 -153 -443 -144 -457 3 -4 0 -8
-7 -8 -7 0 -10 -3 -7 -6 3 -3 2 -21 -4 -41 -16 -57 -42 -181 -54 -252 -3 -18
-8 -43 -10 -55 -7 -31 -14 -85 -18 -132 -1 -23 -5 -45 -8 -50 -4 -8 -8 -44
-12 -134 -1 -20 -4 -40 -7 -45 -10 -17 -8 -525 1 -550 6 -15 6 -27 -1 -30 -5
-4 -6 -11 -3 -17 4 -5 8 -31 10 -57 5 -54 24 -217 30 -246 2 -11 6 -36 9 -55
3 -19 7 -48 11 -65 3 -16 7 -41 9 -55 2 -14 4 -25 5 -25 1 0 3 -10 6 -23 2
-13 16 -69 30 -125 14 -56 28 -113 30 -126 3 -14 7 -28 10 -33 3 -4 7 -17 10
-28 2 -11 6 -28 9 -38 8 -30 72 -215 95 -272 12 -30 27 -71 35 -91 7 -20 18
-45 23 -55 6 -11 18 -37 27 -59 44 -101 178 -358 201 -386 8 -8 14 -19 14 -23
0 -9 114 -189 154 -242 17 -23 40 -55 51 -70 147 -205 395 -479 575 -634 35
-30 75 -65 89 -78 144 -125 415 -313 616 -425 61 -34 306 -156 360 -179 56
-24 277 -109 295 -114 8 -2 67 -20 130 -39 63 -20 126 -39 140 -41 14 -3 32
-7 40 -11 19 -7 175 -42 215 -48 17 -3 66 -12 110 -20 44 -8 85 -13 92 -11 6
3 14 2 17 -2 7 -7 19 -9 96 -17 136 -14 172 -16 280 -20 63 -3 126 -6 140 -8
14 -2 37 0 53 4 16 5 27 4 27 -2 0 -6 4 -7 10 -4 5 3 67 8 137 11 71 2 139 6
152 9 13 2 56 7 95 11 67 6 95 10 106 14 3 1 9 2 13 1 5 -1 36 4 70 10 34 6
76 13 92 16 36 5 50 8 140 29 39 8 77 17 85 19 12 2 81 21 110 30 3 1 19 5 35
9 67 18 283 90 330 111 28 12 55 23 60 25 20 5 58 21 111 45 30 14 61 25 68
25 8 0 16 3 18 8 2 4 48 29 102 56 118 58 257 136 341 191 33 22 65 42 71 45
27 13 234 165 234 172 0 4 5 8 11 8 6 0 21 9 33 20 11 10 50 43 86 72 36 29
87 73 114 98 64 59 276 270 276 275 0 2 10 15 22 28 50 51 98 106 98 112 0 3
14 19 30 35 17 16 30 34 30 40 0 5 3 10 8 10 4 0 18 17 32 38 29 44 40 58 60
80 18 21 189 284 216 332 10 19 21 37 24 40 3 3 16 28 30 55 14 28 27 52 30
55 5 5 83 160 85 170 1 3 14 32 29 65 15 33 32 71 38 85 5 14 16 39 23 55 16
37 86 226 89 240 6 23 39 133 52 170 7 22 16 51 18 65 3 14 12 54 21 90 18 69
22 90 30 130 10 50 15 76 21 105 4 17 8 44 10 60 1 17 5 41 9 55 3 14 8 53 10
88 3 35 7 66 9 70 23 38 29 842 6 842 -3 0 -6 17 -6 38 -1 42 -11 124 -19 162
-3 14 -7 41 -10 60 -3 19 -7 46 -10 60 -5 24 -10 52 -20 110 -3 14 -12 52 -21
85 -18 70 -23 91 -30 125 -2 14 -7 32 -11 40 -3 8 -8 24 -10 35 -6 31 -89 273
-123 360 -49 124 -70 172 -140 315 -29 58 -60 119 -69 135 -10 17 -30 53 -45
80 -55 98 -91 155 -98 155 -5 0 -8 9 -8 19 0 11 -3 21 -8 23 -4 2 -27 32 -51
68 -24 36 -48 67 -53 68 -4 2 -8 9 -8 15 0 7 -14 27 -30 46 -17 18 -30 37 -30
40 0 4 -12 21 -27 38 -16 17 -41 48 -58 69 -105 133 -314 351 -445 464 -35 30
-76 66 -92 80 -118 105 -518 383 -544 379 -4 0 -10 3 -13 8 -14 19 -270 150
-406 208 -60 26 -123 53 -140 60 -35 16 -323 114 -354 120 -22 5 -30 7 -96 25
-46 13 -109 28 -145 35 -14 3 -43 9 -65 14 -69 16 -146 29 -265 46 -14 2 -70
8 -190 22 -53 5 -576 13 -582 8z"/>
</g>
</svg>
