<svg width="898" height="385" viewBox="0 0 898 385" fill="none" xmlns="http://www.w3.org/2000/svg">
<path fill-rule="evenodd" clip-rule="evenodd" d="M204.286 64.1721C215.12 64.1721 223.903 55.3891 223.903 44.5547C223.903 33.7204 215.12 24.9374 204.286 24.9374C193.451 24.9374 184.668 33.7204 184.668 44.5547C184.668 55.3891 193.451 64.1721 204.286 64.1721ZM204.286 72.817C219.895 72.817 232.548 60.1636 232.548 44.5547C232.548 28.9459 219.895 16.2925 204.286 16.2925C188.677 16.2925 176.023 28.9459 176.023 44.5547C176.023 60.1636 188.677 72.817 204.286 72.817Z" fill="#D0EDF5"/>
<path fill-rule="evenodd" clip-rule="evenodd" d="M224.57 29.5923L189.325 64.837L183.212 58.7241L218.457 23.4794L224.57 29.5923Z" fill="#D0EDF5"/>
<path fill-rule="evenodd" clip-rule="evenodd" d="M694.103 5.15371C698.07 -1.71789 707.989 -1.71791 711.956 5.1537L741.615 56.5245C745.582 63.3961 740.623 71.9856 732.689 71.9856H673.371C665.436 71.9856 660.477 63.3961 664.444 56.5245L694.103 5.15371ZM704.469 9.47617C703.829 8.36785 702.23 8.36784 701.59 9.47617L671.931 60.847C671.291 61.9553 672.091 63.3407 673.371 63.3407H732.689C733.968 63.3407 734.768 61.9553 734.128 60.847L704.469 9.47617Z" fill="#D0EDF5"/>
<path d="M700.475 24.6404C700.421 23.1801 701.59 21.9668 703.051 21.9668V21.9668C704.515 21.9668 705.685 23.1835 705.627 24.6457L704.902 43.1638C704.863 44.168 704.037 44.9619 703.032 44.9619V44.9619C702.026 44.9619 701.2 44.1658 701.162 43.16L700.475 24.6404ZM703.078 57.8543C702.193 57.8543 701.45 57.5663 700.85 56.9902C700.249 56.3821 699.949 55.646 699.949 54.7819C699.949 53.9178 700.249 53.1977 700.85 52.6216C701.45 52.0135 702.193 51.7095 703.078 51.7095C703.963 51.7095 704.689 52.0135 705.258 52.6216C705.827 53.1977 706.112 53.9178 706.112 54.7819C706.112 55.646 705.811 56.3821 705.211 56.9902C704.642 57.5663 703.931 57.8543 703.078 57.8543Z" fill="#D0EDF5"/>
<path fill-rule="evenodd" clip-rule="evenodd" d="M699.449 58.4115L699.43 58.3923C698.456 57.4062 697.954 56.1645 697.954 54.7823C697.954 53.4072 698.453 52.1668 699.449 51.2012C700.436 50.2114 701.689 49.7149 703.078 49.7149C704.467 49.7149 705.727 50.2139 706.697 51.2395C707.648 52.2128 708.106 53.4413 708.106 54.7823C708.106 56.1645 707.604 57.4062 706.63 58.3923C705.665 59.3702 704.432 59.8497 703.078 59.8497C701.714 59.8497 700.466 59.3868 699.469 58.4301L699.449 58.4115ZM705.258 52.622C704.689 52.0139 703.962 51.7099 703.078 51.7099C702.193 51.7099 701.45 52.0139 700.85 52.622C700.249 53.1981 699.949 53.9182 699.949 54.7823C699.949 55.6464 700.249 56.3825 700.85 56.9906C701.45 57.5666 702.193 57.8547 703.078 57.8547C703.931 57.8547 704.642 57.5666 705.211 56.9906C705.811 56.3825 706.111 55.6464 706.111 54.7823C706.111 53.9182 705.827 53.1981 705.258 52.622ZM707.621 24.7242L706.895 43.2423C706.814 45.3171 705.108 46.9572 703.032 46.9572C700.953 46.9572 699.246 45.3124 699.168 43.2343L698.481 24.7147C698.385 22.1244 700.459 19.9722 703.051 19.9722C705.647 19.9722 707.722 22.1303 707.621 24.7242ZM703.051 21.9672C701.59 21.9672 700.421 23.1805 700.475 24.6408L701.162 43.1603C701.199 44.1661 702.026 44.9622 703.032 44.9622C704.037 44.9622 704.863 44.1684 704.902 43.1642L705.627 24.6461C705.684 23.1838 704.515 21.9672 703.051 21.9672Z" fill="#D0EDF5"/>
<path fill-rule="evenodd" clip-rule="evenodd" d="M0.464844 136.324C0.464844 133.202 2.99553 130.671 6.1173 130.671H42.027C45.1488 130.671 47.6794 133.202 47.6794 136.324C47.6794 139.446 45.1488 141.976 42.027 141.976H6.1173C2.99553 141.976 0.464844 139.446 0.464844 136.324Z" fill="#D0EDF5"/>
<path fill-rule="evenodd" clip-rule="evenodd" d="M679.424 376.387C679.424 373.265 681.955 370.734 685.076 370.734H720.986C724.108 370.734 726.638 373.265 726.638 376.387C726.638 379.509 724.108 382.039 720.986 382.039H685.076C681.955 382.039 679.424 379.509 679.424 376.387Z" fill="#D0EDF5"/>
<path fill-rule="evenodd" clip-rule="evenodd" d="M138.789 270.978C140.997 268.771 144.576 268.771 146.783 270.978L176.694 300.889C178.901 303.097 178.901 306.676 176.694 308.883C174.487 311.09 170.908 311.09 168.7 308.883L138.789 278.972C136.582 276.765 136.582 273.186 138.789 270.978Z" fill="#D0EDF5"/>
<path fill-rule="evenodd" clip-rule="evenodd" d="M177.083 270.978C174.875 268.771 171.296 268.771 169.089 270.978L139.178 300.889C136.971 303.097 136.971 306.676 139.178 308.883C141.386 311.09 144.964 311.09 147.172 308.883L177.083 278.972C179.29 276.765 179.29 273.186 177.083 270.978Z" fill="#D0EDF5"/>
<path fill-rule="evenodd" clip-rule="evenodd" d="M301.108 375.457C323.695 375.457 342.006 357.147 342.006 334.56C342.006 311.973 323.695 293.663 301.108 293.663C278.522 293.663 260.211 311.973 260.211 334.56C260.211 357.147 278.522 375.457 301.108 375.457ZM301.108 384.102C328.47 384.102 350.651 361.921 350.651 334.56C350.651 307.199 328.47 285.018 301.108 285.018C273.747 285.018 251.566 307.199 251.566 334.56C251.566 361.921 273.747 384.102 301.108 384.102Z" fill="#D0EDF5"/>
<path fill-rule="evenodd" clip-rule="evenodd" d="M286.347 320.061C288.295 318.114 291.453 318.114 293.401 320.061L316.272 342.933C318.22 344.88 318.22 348.038 316.272 349.986C314.324 351.934 311.167 351.934 309.219 349.986L286.347 327.115C284.4 325.167 284.4 322.009 286.347 320.061Z" fill="#D0EDF5"/>
<path fill-rule="evenodd" clip-rule="evenodd" d="M315.836 320.061C313.889 318.114 310.731 318.114 308.783 320.061L285.911 342.933C283.964 344.88 283.964 348.038 285.911 349.986C287.859 351.934 291.017 351.934 292.965 349.986L315.836 327.115C317.784 325.167 317.784 322.009 315.836 320.061Z" fill="#D0EDF5"/>
<path fill-rule="evenodd" clip-rule="evenodd" d="M867.155 38.7005C869.103 36.7528 872.261 36.7528 874.208 38.7005L893.755 58.2469C895.702 60.1947 895.702 63.3525 893.755 65.3003C891.807 67.248 888.649 67.248 886.701 65.3003L867.155 45.7538C865.207 43.8061 865.207 40.6482 867.155 38.7005Z" fill="#D0EDF5"/>
<path fill-rule="evenodd" clip-rule="evenodd" d="M893.909 38.7005C891.962 36.7528 888.804 36.7528 886.856 38.7005L867.31 58.2469C865.362 60.1947 865.362 63.3525 867.31 65.3003C869.257 67.248 872.415 67.248 874.363 65.3003L893.909 45.7538C895.857 43.8061 895.857 40.6482 893.909 38.7005Z" fill="#D0EDF5"/>
<path d="M397.487 218.435H372.944V250.014H348.005V218.435H272V200.56L340.285 110.986H367.798L303.471 196.587H348.796V168.583H372.944V196.587H397.487V218.435Z" fill="#85999F"/>
<path d="M466.111 252C455.027 252 445.13 249.219 436.422 243.658C427.713 237.965 420.851 229.756 415.837 219.031C410.823 208.173 408.316 195.33 408.316 180.5C408.316 165.67 410.823 152.893 415.837 142.168C420.851 131.311 427.713 123.101 436.422 117.54C445.13 111.847 455.027 109 466.111 109C477.195 109 487.091 111.847 495.8 117.54C504.641 123.101 511.569 131.311 516.583 142.168C521.597 152.893 524.104 165.67 524.104 180.5C524.104 195.33 521.597 208.173 516.583 219.031C511.569 229.756 504.641 237.965 495.8 243.658C487.091 249.219 477.195 252 466.111 252ZM466.111 229.557C476.007 229.557 483.793 225.452 489.467 217.243C495.272 209.034 498.175 196.786 498.175 180.5C498.175 164.214 495.272 151.966 489.467 143.757C483.793 135.548 476.007 131.443 466.111 131.443C456.346 131.443 448.561 135.548 442.755 143.757C437.081 151.966 434.244 164.214 434.244 180.5C434.244 196.786 437.081 209.034 442.755 217.243C448.561 225.452 456.346 229.557 466.111 229.557Z" fill="#85999F"/>
<path d="M665 218.435H640.457V250.014H615.518V218.435H539.513V200.56L607.799 110.986H635.311L570.984 196.587H616.31V168.583H640.457V196.587H665V218.435Z" fill="#85999F"/>
</svg>
