<svg width="262" height="233" viewBox="0 0 262 233" fill="none" xmlns="http://www.w3.org/2000/svg">
<path d="M101.727 126.151H91.6104V139.181H81.3302V126.151H50V118.776L78.1482 81.8194H89.4891L62.9726 117.137H81.6565V105.583H91.6104V117.137H101.727V126.151Z" fill="#85999F"/>
<path d="M130.015 140C125.446 140 121.367 138.853 117.777 136.558C114.187 134.209 111.359 130.822 109.292 126.397C107.225 121.918 106.191 116.619 106.191 110.5C106.191 104.381 107.225 99.1097 109.292 94.6847C111.359 90.2051 114.187 86.8181 117.777 84.5236C121.367 82.1745 125.446 81 130.015 81C134.584 81 138.664 82.1745 142.254 84.5236C145.898 86.8181 148.753 90.2051 150.82 94.6847C152.887 99.1097 153.921 104.381 153.921 110.5C153.921 116.619 152.887 121.918 150.82 126.397C148.753 130.822 145.898 134.209 142.254 136.558C138.664 138.853 134.584 140 130.015 140ZM130.015 130.74C134.095 130.74 137.304 129.047 139.643 125.66C142.036 122.273 143.233 117.219 143.233 110.5C143.233 103.781 142.036 98.7273 139.643 95.3403C137.304 91.9532 134.095 90.2597 130.015 90.2597C125.99 90.2597 122.781 91.9532 120.388 95.3403C118.049 98.7273 116.879 103.781 116.879 110.5C116.879 117.219 118.049 122.273 120.388 125.66C122.781 129.047 125.99 130.74 130.015 130.74Z" fill="#85999F"/>
<path d="M212 126.151H201.883V139.181H191.603V126.151H160.273V118.776L188.421 81.8194H199.762L173.245 117.137H191.929V105.583H201.883V117.137H212V126.151Z" fill="#85999F"/>
<path fill-rule="evenodd" clip-rule="evenodd" d="M86.6049 49.6601C91.0537 49.6601 94.6601 46.0537 94.6601 41.6049C94.6601 37.1562 91.0537 33.5497 86.6049 33.5497C82.1562 33.5497 78.5497 37.1562 78.5497 41.6049C78.5497 46.0537 82.1562 49.6601 86.6049 49.6601ZM86.6049 53.2098C93.0141 53.2098 98.2098 48.0141 98.2098 41.6049C98.2098 35.1957 93.0141 30 86.6049 30C80.1957 30 75 35.1957 75 41.6049C75 48.0141 80.1957 53.2098 86.6049 53.2098Z" fill="#D0EDF5"/>
<path fill-rule="evenodd" clip-rule="evenodd" d="M94.9352 35.4628L80.4632 49.9349L77.9531 47.4248L92.4251 32.9528L94.9352 35.4628Z" fill="#D0EDF5"/>
<path fill-rule="evenodd" clip-rule="evenodd" d="M26.6401 161.641C27.5465 160.735 29.016 160.735 29.9224 161.641L42.2043 173.923C43.1107 174.829 43.1107 176.299 42.2043 177.205C41.2979 178.112 39.8284 178.112 38.9219 177.205L26.6401 164.924C25.7337 164.017 25.7337 162.548 26.6401 161.641Z" fill="#D0EDF5"/>
<path fill-rule="evenodd" clip-rule="evenodd" d="M42.3677 161.641C41.4613 160.735 39.9918 160.735 39.0854 161.641L26.8035 173.923C25.8971 174.829 25.8971 176.299 26.8035 177.205C27.7099 178.112 29.1795 178.112 30.0859 177.205L42.3677 164.924C43.2741 164.017 43.2741 162.548 42.3677 161.641Z" fill="#D0EDF5"/>
<path fill-rule="evenodd" clip-rule="evenodd" d="M0 79C0 77.8954 1.01839 77 2.27465 77H16.7254C17.9816 77 19 77.8954 19 79C19 80.1046 17.9816 81 16.7254 81H2.27465C1.01839 81 0 80.1046 0 79Z" fill="#D0EDF5"/>
<path fill-rule="evenodd" clip-rule="evenodd" d="M208.752 2.11619C210.381 -0.705394 214.453 -0.7054 216.082 2.11619L228.261 23.2098C229.89 26.0314 227.854 29.5584 224.596 29.5584H200.239C196.981 29.5584 194.944 26.0314 196.573 23.2098L208.752 2.11619ZM213.008 3.89106C212.746 3.43597 212.089 3.43597 211.826 3.89106L199.648 24.9847C199.385 25.4398 199.713 26.0087 200.239 26.0087H224.596C225.121 26.0087 225.449 25.4398 225.187 24.9847L213.008 3.89106Z" fill="#D0EDF5"/>
<path d="M211.372 10.1174C211.35 9.51775 211.83 9.01953 212.43 9.01953C213.031 9.01953 213.511 9.51911 213.488 10.1195L213.19 17.7234C213.174 18.1357 212.835 18.4617 212.422 18.4617C212.009 18.4617 211.67 18.1348 211.654 17.7218L211.372 10.1174ZM212.441 23.7555C212.078 23.7555 211.773 23.6372 211.526 23.4007C211.28 23.151 211.156 22.8487 211.156 22.4939C211.156 22.1391 211.28 21.8434 211.526 21.6069C211.773 21.3572 212.078 21.2323 212.441 21.2323C212.804 21.2323 213.103 21.3572 213.336 21.6069C213.57 21.8434 213.687 22.1391 213.687 22.4939C213.687 22.8487 213.563 23.151 213.317 23.4007C213.083 23.6372 212.791 23.7555 212.441 23.7555Z" fill="#D0EDF5"/>
<path fill-rule="evenodd" clip-rule="evenodd" d="M210.946 23.9849L210.938 23.9771C210.538 23.5721 210.332 23.0623 210.332 22.4947C210.332 21.9301 210.537 21.4208 210.946 21.0243C211.351 20.6179 211.866 20.414 212.436 20.414C213.006 20.414 213.524 20.6189 213.922 21.04C214.312 21.4397 214.501 21.9441 214.501 22.4947C214.501 23.0623 214.294 23.5721 213.895 23.9771C213.498 24.3786 212.992 24.5755 212.436 24.5755C211.876 24.5755 211.363 24.3854 210.954 23.9926L210.946 23.9849ZM213.331 21.6077C213.098 21.358 212.799 21.2332 212.436 21.2332C212.073 21.2332 211.768 21.358 211.521 21.6077C211.274 21.8442 211.151 22.1399 211.151 22.4947C211.151 22.8496 211.274 23.1518 211.521 23.4015C211.768 23.638 212.073 23.7563 212.436 23.7563C212.786 23.7563 213.078 23.638 213.312 23.4015C213.558 23.1518 213.682 22.8496 213.682 22.4947C213.682 22.1399 213.565 21.8442 213.331 21.6077ZM214.301 10.1524L214.003 17.7562C213.97 18.6082 213.27 19.2817 212.417 19.2817C211.563 19.2817 210.862 18.6063 210.831 17.753L210.549 10.1485C210.509 9.08493 211.361 8.20117 212.425 8.20117C213.491 8.20117 214.343 9.08735 214.301 10.1524ZM212.425 9.02034C211.825 9.02034 211.345 9.51856 211.367 10.1182L211.649 17.7226C211.665 18.1356 212.004 18.4625 212.417 18.4625C212.83 18.4625 213.169 18.1365 213.185 17.7242L213.483 10.1204C213.506 9.51993 213.026 9.02034 212.425 9.02034Z" fill="#D0EDF5"/>
<path fill-rule="evenodd" clip-rule="evenodd" d="M114.343 229.136C123.617 229.136 131.136 221.617 131.136 212.343C131.136 203.068 123.617 195.55 114.343 195.55C105.068 195.55 97.5497 203.068 97.5497 212.343C97.5497 221.617 105.068 229.136 114.343 229.136ZM114.343 232.685C125.578 232.685 134.685 223.578 134.685 212.343C134.685 201.108 125.578 192 114.343 192C103.108 192 94 201.108 94 212.343C94 223.578 103.108 232.685 114.343 232.685Z" fill="#D0EDF5"/>
<path fill-rule="evenodd" clip-rule="evenodd" d="M108.282 206.39C109.082 205.59 110.379 205.59 111.179 206.39L120.57 215.781C121.37 216.581 121.37 217.877 120.57 218.677C119.77 219.477 118.473 219.477 117.674 218.677L108.282 209.286C107.483 208.486 107.483 207.189 108.282 206.39Z" fill="#D0EDF5"/>
<path fill-rule="evenodd" clip-rule="evenodd" d="M120.393 206.39C119.594 205.59 118.297 205.59 117.497 206.39L108.106 215.781C107.306 216.581 107.306 217.877 108.106 218.677C108.906 219.477 110.202 219.477 111.002 218.677L120.393 209.286C121.193 208.486 121.193 207.189 120.393 206.39Z" fill="#D0EDF5"/>
<path fill-rule="evenodd" clip-rule="evenodd" d="M229 171C229 169.895 230.018 169 231.275 169H245.725C246.982 169 248 169.895 248 171C248 172.105 246.982 173 245.725 173H231.275C230.018 173 229 172.105 229 171Z" fill="#D0EDF5"/>
<path fill-rule="evenodd" clip-rule="evenodd" d="M249.446 93.4481C250.246 92.6483 251.543 92.6483 252.343 93.4481L260.369 101.474C261.168 102.274 261.168 103.571 260.369 104.37C259.569 105.17 258.272 105.17 257.473 104.37L249.446 96.3443C248.647 95.5445 248.647 94.2479 249.446 93.4481Z" fill="#D0EDF5"/>
<path fill-rule="evenodd" clip-rule="evenodd" d="M260.432 93.4481C259.633 92.6483 258.336 92.6483 257.536 93.4481L249.51 101.474C248.71 102.274 248.71 103.571 249.51 104.37C250.31 105.17 251.607 105.17 252.406 104.37L260.432 96.3443C261.232 95.5445 261.232 94.2479 260.432 93.4481Z" fill="#D0EDF5"/>
</svg>
