<svg width="673" height="388" viewBox="0 0 673 388" fill="none" xmlns="http://www.w3.org/2000/svg">
<path d="M279.178 213.772H259.193V239.389H238.887V213.772H177V199.272L232.601 126.611H255.003L202.625 196.05H239.531V173.333H259.193V196.05H279.178V213.772Z" fill="#85999F"/>
<path d="M335.055 241C326.03 241 317.971 238.744 310.88 234.233C303.789 229.615 298.202 222.956 294.119 214.256C290.036 205.448 287.995 195.03 287.995 183C287.995 170.97 290.036 160.606 294.119 151.906C298.202 143.098 303.789 136.439 310.88 131.928C317.971 127.309 326.03 125 335.055 125C344.08 125 352.138 127.309 359.229 131.928C366.428 136.439 372.069 143.098 376.151 151.906C380.234 160.606 382.276 170.97 382.276 183C382.276 195.03 380.234 205.448 376.151 214.256C372.069 222.956 366.428 229.615 359.229 234.233C352.138 238.744 344.08 241 335.055 241ZM335.055 222.794C343.113 222.794 349.452 219.465 354.072 212.806C358.799 206.146 361.163 196.211 361.163 183C361.163 169.789 358.799 159.854 354.072 153.194C349.452 146.535 343.113 143.206 335.055 143.206C327.104 143.206 320.765 146.535 316.037 153.194C311.417 159.854 309.107 169.789 309.107 183C309.107 196.211 311.417 206.146 316.037 212.806C320.765 219.465 327.104 222.794 335.055 222.794Z" fill="#85999F"/>
<path d="M497 213.772H477.016V239.389H456.709V213.772H394.822V199.272L450.424 126.611H472.826L420.447 196.05H457.354V173.333H477.016V196.05H497V213.772Z" fill="#85999F"/>
<path fill-rule="evenodd" clip-rule="evenodd" d="M199.031 75.0164C207.859 75.0164 215.016 67.8593 215.016 59.0305C215.016 50.2018 207.859 43.0446 199.031 43.0446C190.202 43.0446 183.045 50.2018 183.045 59.0305C183.045 67.8593 190.202 75.0164 199.031 75.0164ZM199.031 82.0611C211.75 82.0611 222.061 71.75 222.061 59.0305C222.061 46.3111 211.75 36 199.031 36C186.311 36 176 46.3111 176 59.0305C176 71.75 186.311 82.0611 199.031 82.0611Z" fill="#D0EDF5"/>
<path fill-rule="evenodd" clip-rule="evenodd" d="M215.557 46.8385L186.837 75.5589L181.855 70.5776L210.576 41.8572L215.557 46.8385Z" fill="#D0EDF5"/>
<path fill-rule="evenodd" clip-rule="evenodd" d="M557.307 4.19969C560.539 -1.39989 568.622 -1.3999 571.855 4.19968L596.023 46.0611C599.256 51.6606 595.215 58.6601 588.749 58.6601H540.412C533.946 58.6601 529.905 51.6607 533.138 46.0611L557.307 4.19969ZM565.754 7.722C565.232 6.81885 563.929 6.81884 563.407 7.722L539.239 49.5834C538.717 50.4865 539.369 51.6155 540.412 51.6155H588.749C589.792 51.6155 590.444 50.4865 589.923 49.5834L565.754 7.722Z" fill="#D0EDF5"/>
<path d="M562.503 20.0791C562.459 18.8891 563.411 17.9004 564.602 17.9004C565.795 17.9004 566.748 18.8918 566.701 20.0834L566.11 35.1736C566.078 35.9919 565.405 36.6388 564.587 36.6388C563.766 36.6388 563.093 35.99 563.063 35.1704L562.503 20.0791ZM564.624 47.1447C563.903 47.1447 563.297 46.9099 562.808 46.4405C562.319 45.945 562.074 45.3451 562.074 44.641C562.074 43.9368 562.319 43.35 562.808 42.8806C563.297 42.3851 563.903 42.1373 564.624 42.1373C565.345 42.1373 565.937 42.3851 566.4 42.8806C566.864 43.35 567.096 43.9368 567.096 44.641C567.096 45.3451 566.851 45.945 566.362 46.4405C565.898 46.9099 565.319 47.1447 564.624 47.1447Z" fill="#D0EDF5"/>
<path fill-rule="evenodd" clip-rule="evenodd" d="M561.664 47.5986L561.648 47.5829C560.855 46.7794 560.445 45.7676 560.445 44.6412C560.445 43.5206 560.852 42.5099 561.664 41.723C562.468 40.9165 563.489 40.5118 564.62 40.5118C565.753 40.5118 566.78 40.9185 567.569 41.7542C568.345 42.5474 568.718 43.5485 568.718 44.6412C568.718 45.7676 568.309 46.7794 567.515 47.5829C566.729 48.3798 565.724 48.7705 564.62 48.7705C563.509 48.7705 562.492 48.3933 561.679 47.6138L561.664 47.5986ZM566.397 42.8808C565.934 42.3853 565.341 42.1375 564.62 42.1375C563.899 42.1375 563.294 42.3853 562.805 42.8808C562.316 43.3502 562.071 43.937 562.071 44.6412C562.071 45.3453 562.316 45.9452 562.805 46.4407C563.294 46.9101 563.899 47.1449 564.62 47.1449C565.316 47.1449 565.895 46.9101 566.359 46.4407C566.848 45.9452 567.093 45.3453 567.093 44.6412C567.093 43.937 566.861 43.3502 566.397 42.8808ZM568.322 20.1472L567.731 35.2374C567.665 36.9281 566.275 38.2647 564.583 38.2647C562.889 38.2647 561.498 36.9243 561.435 35.2309L560.875 20.1396C560.797 18.0288 562.487 16.2749 564.599 16.2749C566.714 16.2749 568.405 18.0336 568.322 20.1472ZM564.599 17.9006C563.408 17.9006 562.455 18.8893 562.499 20.0793L563.059 35.1706C563.09 35.9902 563.763 36.639 564.583 36.639C565.402 36.639 566.075 35.9921 566.107 35.1738L566.698 20.0836C566.745 18.892 565.791 17.9006 564.599 17.9006Z" fill="#D0EDF5"/>
<path fill-rule="evenodd" clip-rule="evenodd" d="M0 146.606C0 144.062 2.06222 142 4.60611 142H33.8684C36.4123 142 38.4745 144.062 38.4745 146.606C38.4745 149.15 36.4123 151.212 33.8684 151.212H4.60611C2.06222 151.212 0 149.15 0 146.606Z" fill="#D0EDF5"/>
<path fill-rule="evenodd" clip-rule="evenodd" d="M497 302.606C497 300.062 499.062 298 501.606 298H530.868C533.412 298 535.475 300.062 535.475 302.606C535.475 305.15 533.412 307.212 530.868 307.212H501.606C499.062 307.212 497 305.15 497 302.606Z" fill="#D0EDF5"/>
<path fill-rule="evenodd" clip-rule="evenodd" d="M66.5203 256.817C68.3191 255.018 71.2356 255.018 73.0344 256.817L97.4084 281.191C99.2071 282.989 99.2071 285.906 97.4084 287.705C95.6096 289.503 92.6931 289.503 90.8943 287.705L66.5203 263.331C64.7215 261.532 64.7215 258.615 66.5203 256.817Z" fill="#D0EDF5"/>
<path fill-rule="evenodd" clip-rule="evenodd" d="M97.7258 256.817C95.927 255.018 93.0105 255.018 91.2117 256.817L66.8377 281.191C65.0389 282.989 65.0389 285.906 66.8377 287.705C68.6365 289.503 71.553 289.503 73.3518 287.705L97.7258 263.331C99.5246 261.532 99.5246 258.615 97.7258 256.817Z" fill="#D0EDF5"/>
<path fill-rule="evenodd" clip-rule="evenodd" d="M233.371 380.698C251.777 380.698 266.698 365.777 266.698 347.371C266.698 328.965 251.777 314.045 233.371 314.045C214.965 314.045 200.045 328.965 200.045 347.371C200.045 365.777 214.965 380.698 233.371 380.698ZM233.371 387.742C255.668 387.742 273.742 369.668 273.742 347.371C273.742 325.075 255.668 307 233.371 307C211.075 307 193 325.075 193 347.371C193 369.668 211.075 387.742 233.371 387.742Z" fill="#D0EDF5"/>
<path fill-rule="evenodd" clip-rule="evenodd" d="M221.349 335.556C222.936 333.969 225.509 333.969 227.096 335.556L245.734 354.194C247.321 355.781 247.321 358.355 245.734 359.942C244.147 361.529 241.574 361.529 239.986 359.942L221.349 341.304C219.762 339.717 219.762 337.144 221.349 335.556Z" fill="#D0EDF5"/>
<path fill-rule="evenodd" clip-rule="evenodd" d="M245.378 335.556C243.791 333.969 241.217 333.969 239.63 335.556L220.992 354.194C219.405 355.781 219.405 358.355 220.992 359.942C222.58 361.529 225.153 361.529 226.74 359.942L245.378 341.304C246.965 339.717 246.965 337.144 245.378 335.556Z" fill="#D0EDF5"/>
<path fill-rule="evenodd" clip-rule="evenodd" d="M647.872 113.874C649.459 112.287 652.033 112.287 653.62 113.874L669.548 129.802C671.135 131.389 671.135 133.962 669.548 135.55C667.961 137.137 665.388 137.137 663.8 135.55L647.872 119.621C646.285 118.034 646.285 115.461 647.872 113.874Z" fill="#D0EDF5"/>
<path fill-rule="evenodd" clip-rule="evenodd" d="M669.675 113.874C668.087 112.287 665.514 112.287 663.927 113.874L647.999 129.802C646.412 131.389 646.412 133.962 647.999 135.55C649.586 137.137 652.159 137.137 653.746 135.55L669.675 119.621C671.262 118.034 671.262 115.461 669.675 113.874Z" fill="#D0EDF5"/>
</svg>
