<svg width="79" height="76" viewBox="0 0 79 76" fill="none" xmlns="http://www.w3.org/2000/svg">
<g opacity="0.28">
<path fill-rule="evenodd" clip-rule="evenodd" d="M22.5934 1.01181C23.2585 0.36396 24.1606 0 25.1012 0H54.4672C55.4078 0 56.3099 0.36396 56.975 1.01181L77.7582 21.2555C78.4233 21.9033 78.7969 22.782 78.7969 23.6982V52.3018C78.7969 53.218 78.4233 54.0967 77.7582 54.7445L56.975 74.9882C56.3099 75.636 55.4078 76 54.4672 76H25.1012C24.1606 76 23.2585 75.636 22.5934 74.9882L1.81026 54.7445C1.14514 54.0967 0.771484 53.218 0.771484 52.3018V23.6982C0.771484 22.782 1.14514 21.9033 1.81026 21.2555L22.5934 1.01181ZM26.5703 6.90909L7.86471 25.1291V50.8709L26.5703 69.0909H52.9981L71.7037 50.8709V25.1291L52.9981 6.90909H26.5703Z" fill="#FF9898"/>
<path fill-rule="evenodd" clip-rule="evenodd" d="M39.7852 20.8791C41.9161 20.8791 43.6436 22.4371 43.6436 24.359V38.2784C43.6436 40.2003 41.9161 41.7583 39.7852 41.7583C37.6542 41.7583 35.9268 40.2003 35.9268 38.2784V24.359C35.9268 22.4371 37.6542 20.8791 39.7852 20.8791Z" fill="#FF9898"/>
<path fill-rule="evenodd" clip-rule="evenodd" d="M35.9268 52.1995C35.9268 50.1229 37.6456 48.4395 39.766 48.4395H39.8044C41.9247 48.4395 43.6436 50.1229 43.6436 52.1995C43.6436 54.276 41.9247 55.9595 39.8044 55.9595H39.766C37.6456 55.9595 35.9268 54.276 35.9268 52.1995Z" fill="#FF9898"/>
</g>
</svg>
