<svg width="27" height="30" viewBox="0 0 27 30" fill="none" xmlns="http://www.w3.org/2000/svg">
<path d="M17.2149 1H3.92722C2.47798 1 1.31445 2.18171 1.31445 3.62498V26.375C1.31445 27.8183 2.47786 29 3.92722 29H23.2806C24.73 29 25.8934 27.8183 25.8934 26.375V9.70292C25.8934 9.17375 25.6837 8.66615 25.3102 8.29129L18.6317 1.58837C18.2565 1.21172 17.7466 1 17.2149 1Z" stroke="#00A9D0" stroke-width="2"/>
<path d="M25.9066 8.99541C26.035 9.12066 25.9463 9.33859 25.7669 9.33859H19.615C18.5628 9.33859 17.709 8.50663 17.709 7.48146V1.47444C17.709 1.29746 17.9219 1.2077 18.0486 1.33127L25.9066 8.99541Z" stroke="#00A9D0" stroke-width="2"/>
<path d="M7.52181 13.1969H8.83981C9.40969 13.1969 9.9118 13.3906 10.2721 13.7344C10.6329 14.0787 10.8458 14.5681 10.8457 15.1475L7.52181 13.1969ZM7.52181 13.1969C7.31331 13.1969 7.13971 13.2645 7.01882 13.3939M7.52181 13.1969L7.01882 13.3939M7.01882 13.3939C6.89883 13.5222 6.84141 13.6999 6.84141 13.9004M7.01882 13.3939L6.84141 13.9004M6.84141 13.9004V18.2545M6.84141 13.9004V18.2545M6.84141 18.2545C6.84141 18.4693 6.90774 18.6471 7.02887 18.7716M6.84141 18.2545L7.02887 18.7716M7.02887 18.7716C7.15 18.8961 7.3169 18.9581 7.49982 18.9581M7.02887 18.7716L7.49982 18.9581M7.49982 18.9581C7.68275 18.9581 7.84965 18.8961 7.97078 18.7716M7.49982 18.9581L7.97078 18.7716M7.97078 18.7716C8.09191 18.6471 8.15824 18.4693 8.15824 18.2545M7.97078 18.7716L8.15824 18.2545M8.15824 18.2545V17.0833M8.15824 18.2545V17.0833M8.15824 17.0833H8.88448C9.95346 17.0833 10.8457 16.3404 10.8457 15.1475L8.15824 17.0833ZM16.5743 16.1476V16.1475C16.5738 15.2634 16.3106 14.5236 15.8071 14.0042C15.3031 13.4845 14.5691 13.1969 13.6496 13.1969H12.3192C12.1161 13.1969 11.9357 13.2651 11.8056 13.3904C11.6751 13.516 11.6016 13.6927 11.6016 13.8967V18.2583C11.6016 18.5128 11.7093 18.689 11.8605 18.7981C12.007 18.904 12.1874 18.9423 12.3344 18.9423H13.7306C14.5785 18.9423 15.291 18.6701 15.7921 18.1796C16.2933 17.6889 16.5743 16.9881 16.5743 16.1476ZM19.7956 14.4657C19.9871 14.4657 20.1345 14.3829 20.2318 14.259C20.3269 14.1378 20.3712 13.9815 20.3712 13.8318C20.3712 13.677 20.325 13.5201 20.2287 13.3998C20.1304 13.277 19.9831 13.1969 19.7956 13.1969H17.9773C17.7701 13.1969 17.6037 13.2816 17.4907 13.4154C17.3793 13.5473 17.3236 13.7221 17.3236 13.9004V18.2545C17.3236 18.468 17.3862 18.6451 17.5021 18.7699C17.6184 18.8951 17.7796 18.9581 17.9572 18.9581C18.1341 18.9581 18.2951 18.8951 18.4113 18.7699C18.5271 18.6452 18.59 18.4681 18.59 18.2545V17.1595H19.5898C19.7897 17.1595 19.9458 17.0785 20.0503 16.9539C20.1528 16.8315 20.2016 16.6721 20.2016 16.5172C20.2016 16.3644 20.1525 16.2083 20.0493 16.0889C19.9444 15.9674 19.7885 15.8897 19.5898 15.8897H18.59V14.4657H19.7956ZM13.7135 17.6671H13.0025V14.4722H13.6335C14.1635 14.4722 14.53 14.6444 14.7659 14.9233C15.0042 15.2049 15.1212 15.6091 15.1212 16.0938C15.1212 16.5454 15.0068 16.9388 14.7781 17.2173C14.5519 17.4929 14.2049 17.6671 13.7135 17.6671ZM8.81792 15.8619H8.15834V14.4193H8.81792C9.0254 14.4193 9.1898 14.4974 9.30317 14.6228C9.41742 14.7491 9.48507 14.9295 9.4851 15.1409C9.48462 15.352 9.41696 15.5323 9.30279 15.6586C9.18954 15.7838 9.02538 15.8619 8.81792 15.8619Z" fill="#00A9D0" stroke="#00A9D0" stroke-width="0.2"/>
</svg>
