<svg width="25" height="25" viewBox="0 0 25 25" fill="none" xmlns="http://www.w3.org/2000/svg">
<path d="M5 21.5C5 22.4284 5.36901 23.3184 6.0253 23.975C6.68156 24.6313 7.57189 25 8.5 25C9.4284 25 10.3187 24.6313 10.975 23.975C11.6313 23.3184 12 22.4284 12 21.5C12 20.5719 11.6313 19.6816 10.975 19.0253C10.3187 18.3687 9.4284 18 8.5 18C7.57218 18.0011 6.6827 18.3701 6.02638 19.0264C5.37039 19.6824 5.00108 20.5721 5 21.5ZM10.3946 21.5C10.3946 22.0026 10.195 22.4844 9.83972 22.8397C9.48443 23.195 9.00257 23.3946 8.50006 23.3946C7.99778 23.3946 7.51597 23.195 7.16061 22.8397C6.80525 22.4844 6.60569 22.0025 6.60569 21.5C6.60569 20.9977 6.80532 20.5156 7.16061 20.1603C7.5159 19.805 7.99776 19.6057 8.50006 19.6057C9.00122 19.6077 9.48113 19.8081 9.8347 20.1634C10.188 20.5184 10.3865 20.9991 10.3865 21.5L10.3946 21.5Z" fill="#FFFFFF"/>
<path d="M19.5 18C18.5716 18 17.6816 18.3687 17.025 19.0253C16.3687 19.6816 16 20.5719 16 21.5C16 22.4284 16.3687 23.3184 17.025 23.975C17.6816 24.6312 18.5716 25 19.5 25C20.4281 25 21.3184 24.6313 21.9747 23.975C22.6313 23.3184 23 22.4284 23 21.5C22.9989 20.5722 22.6299 19.6824 21.9736 19.0264C21.3176 18.3701 20.4279 18.0011 19.5 18ZM19.5 23.3946C18.9974 23.3946 18.5156 23.195 18.1603 22.8397C17.805 22.4844 17.6054 22.0026 17.6054 21.5001C17.6054 20.9978 17.805 20.5157 18.1603 20.1604C18.5156 19.8051 18.9975 19.6058 19.5 19.6058C20.0023 19.6058 20.4844 19.8051 20.8397 20.1604C21.195 20.5157 21.3943 20.9978 21.3943 21.5001C21.3935 22.0018 21.1933 22.4828 20.838 22.8372C20.483 23.1914 20.0017 23.3905 19.5 23.3905L19.5 23.3946Z" fill="#FFFFFF"/>
<path d="M6.49857 15.5L3.99857 2H0.99857C0.00308508 2 0.000863372 1.26959 5.42726e-05 1.00359L4.32586e-05 1C-0.000777133 0.73705 4.3273e-05 0 0.99857 0L5.03616 0.00012556C5.35277 -0.00604996 5.62831 0.216205 5.69013 0.527861L8.51225 14.6888H20.6409L22.5376 6.44758H14.4985L11.4985 9C10.9985 9.5 10.2246 9.25838 9.99854 9C9.77248 8.74139 9.49854 8 9.99854 7.5L12.9985 5C13.1174 4.89665 13.4985 4.5 13.9372 4.5H24.1234C24.9985 4.5 24.9985 5 24.9985 5L22.4985 15.5C22.4301 15.7977 21.9985 16.5 20.9985 16.5H7.99854C6.99854 16.5 6.56039 15.8117 6.49857 15.5Z" fill="#FFFFFF"/>
</svg>
