<svg width="673" height="388" viewBox="0 0 673 388" fill="none" xmlns="http://www.w3.org/2000/svg">
<path fill-rule="evenodd" clip-rule="evenodd" d="M199.031 75.0164C207.859 75.0164 215.016 67.8593 215.016 59.0305C215.016 50.2018 207.859 43.0446 199.031 43.0446C190.202 43.0446 183.045 50.2018 183.045 59.0305C183.045 67.8593 190.202 75.0164 199.031 75.0164ZM199.031 82.0611C211.75 82.0611 222.061 71.7499 222.061 59.0305C222.061 46.3111 211.75 36 199.031 36C186.311 36 176 46.3111 176 59.0305C176 71.7499 186.311 82.0611 199.031 82.0611Z" fill="#D0EDF5"/>
<path fill-rule="evenodd" clip-rule="evenodd" d="M215.557 46.8385L186.837 75.5589L181.855 70.5776L210.576 41.8572L215.557 46.8385Z" fill="#D0EDF5"/>
<path fill-rule="evenodd" clip-rule="evenodd" d="M557.307 4.19969C560.539 -1.39989 568.622 -1.3999 571.855 4.19968L596.023 46.0611C599.256 51.6606 595.215 58.6601 588.749 58.6601H540.412C533.946 58.6601 529.905 51.6607 533.138 46.0611L557.307 4.19969ZM565.754 7.722C565.232 6.81885 563.929 6.81884 563.407 7.722L539.239 49.5834C538.717 50.4865 539.369 51.6155 540.412 51.6155H588.749C589.792 51.6155 590.444 50.4866 589.923 49.5834L565.754 7.722Z" fill="#D0EDF5"/>
<path d="M562.503 20.0791C562.459 18.8891 563.411 17.9004 564.602 17.9004V17.9004C565.795 17.9004 566.748 18.8918 566.701 20.0834L566.11 35.1736C566.078 35.9919 565.405 36.6388 564.587 36.6388V36.6388C563.766 36.6388 563.093 35.99 563.063 35.1704L562.503 20.0791ZM564.624 47.1447C563.903 47.1447 563.297 46.9099 562.808 46.4405C562.319 45.945 562.074 45.3451 562.074 44.641C562.074 43.9368 562.319 43.35 562.808 42.8806C563.297 42.3851 563.903 42.1373 564.624 42.1373C565.345 42.1373 565.937 42.3851 566.4 42.8806C566.864 43.35 567.096 43.9368 567.096 44.641C567.096 45.3451 566.851 45.945 566.362 46.4405C565.898 46.9099 565.319 47.1447 564.624 47.1447Z" fill="#D0EDF5"/>
<path fill-rule="evenodd" clip-rule="evenodd" d="M561.664 47.5986L561.648 47.5829C560.855 46.7794 560.445 45.7676 560.445 44.6412C560.445 43.5206 560.852 42.5099 561.664 41.723C562.468 40.9165 563.489 40.5118 564.62 40.5118C565.753 40.5118 566.78 40.9185 567.569 41.7542C568.345 42.5474 568.718 43.5485 568.718 44.6412C568.718 45.7676 568.309 46.7794 567.515 47.5829C566.729 48.3798 565.724 48.7705 564.62 48.7705C563.509 48.7705 562.492 48.3933 561.679 47.6138L561.664 47.5986ZM566.397 42.8808C565.934 42.3853 565.341 42.1375 564.62 42.1375C563.899 42.1375 563.294 42.3853 562.805 42.8808C562.316 43.3502 562.071 43.937 562.071 44.6412C562.071 45.3453 562.316 45.9452 562.805 46.4407C563.294 46.9101 563.899 47.1449 564.62 47.1449C565.316 47.1449 565.895 46.9101 566.359 46.4407C566.848 45.9452 567.093 45.3453 567.093 44.6412C567.093 43.937 566.861 43.3502 566.397 42.8808ZM568.322 20.1472L567.731 35.2374C567.665 36.9281 566.275 38.2647 564.583 38.2647C562.889 38.2647 561.498 36.9243 561.435 35.2309L560.875 20.1396C560.797 18.0288 562.487 16.2749 564.599 16.2749C566.714 16.2749 568.405 18.0336 568.322 20.1472ZM564.599 17.9006C563.408 17.9006 562.455 18.8893 562.499 20.0793L563.059 35.1706C563.09 35.9902 563.763 36.639 564.583 36.639C565.402 36.639 566.075 35.9921 566.107 35.1738L566.698 20.0836C566.745 18.892 565.791 17.9006 564.599 17.9006Z" fill="#D0EDF5"/>
<path fill-rule="evenodd" clip-rule="evenodd" d="M0 146.606C0 144.062 2.06222 142 4.60611 142H33.8684C36.4123 142 38.4745 144.062 38.4745 146.606C38.4745 149.15 36.4123 151.212 33.8684 151.212H4.60611C2.06222 151.212 0 149.15 0 146.606Z" fill="#D0EDF5"/>
<path fill-rule="evenodd" clip-rule="evenodd" d="M497 302.606C497 300.062 499.062 298 501.606 298H530.868C533.412 298 535.475 300.062 535.475 302.606C535.475 305.15 533.412 307.212 530.868 307.212H501.606C499.062 307.212 497 305.15 497 302.606Z" fill="#D0EDF5"/>
<path fill-rule="evenodd" clip-rule="evenodd" d="M66.5184 256.817C68.3172 255.018 71.2336 255.018 73.0324 256.817L97.4064 281.191C99.2052 282.989 99.2052 285.906 97.4064 287.705C95.6076 289.503 92.6912 289.503 90.8924 287.705L66.5184 263.331C64.7196 261.532 64.7196 258.615 66.5184 256.817Z" fill="#D0EDF5"/>
<path fill-rule="evenodd" clip-rule="evenodd" d="M97.7238 256.817C95.925 255.018 93.0086 255.018 91.2098 256.817L66.8358 281.191C65.037 282.989 65.037 285.906 66.8358 287.705C68.6346 289.503 71.551 289.503 73.3498 287.705L97.7238 263.331C99.5226 261.532 99.5226 258.615 97.7238 256.817Z" fill="#D0EDF5"/>
<path fill-rule="evenodd" clip-rule="evenodd" d="M233.371 380.698C251.777 380.698 266.698 365.777 266.698 347.371C266.698 328.965 251.777 314.045 233.371 314.045C214.965 314.045 200.045 328.965 200.045 347.371C200.045 365.777 214.965 380.698 233.371 380.698ZM233.371 387.742C255.668 387.742 273.742 369.668 273.742 347.371C273.742 325.075 255.668 307 233.371 307C211.075 307 193 325.075 193 347.371C193 369.668 211.075 387.742 233.371 387.742Z" fill="#D0EDF5"/>
<path fill-rule="evenodd" clip-rule="evenodd" d="M221.349 335.556C222.936 333.969 225.509 333.969 227.096 335.556L245.734 354.194C247.321 355.781 247.321 358.355 245.734 359.942C244.147 361.529 241.574 361.529 239.986 359.942L221.349 341.304C219.762 339.717 219.762 337.144 221.349 335.556Z" fill="#D0EDF5"/>
<path fill-rule="evenodd" clip-rule="evenodd" d="M245.378 335.556C243.791 333.969 241.217 333.969 239.63 335.556L220.992 354.194C219.405 355.781 219.405 358.355 220.992 359.942C222.58 361.529 225.153 361.529 226.74 359.942L245.378 341.304C246.965 339.717 246.965 337.144 245.378 335.556Z" fill="#D0EDF5"/>
<path fill-rule="evenodd" clip-rule="evenodd" d="M647.874 113.874C649.461 112.287 652.035 112.287 653.622 113.874L669.55 129.802C671.137 131.389 671.137 133.962 669.55 135.55C667.963 137.137 665.39 137.137 663.802 135.55L647.874 119.621C646.287 118.034 646.287 115.461 647.874 113.874Z" fill="#D0EDF5"/>
<path fill-rule="evenodd" clip-rule="evenodd" d="M669.677 113.874C668.089 112.287 665.516 112.287 663.929 113.874L648.001 129.802C646.414 131.389 646.414 133.962 648.001 135.55C649.588 137.137 652.161 137.137 653.748 135.55L669.677 119.621C671.264 118.034 671.264 115.461 669.677 113.874Z" fill="#D0EDF5"/>
<path d="M293.163 258.474C293.163 263.244 295.438 267.818 299.485 271.191C303.532 274.564 309.022 276.458 314.745 276.458C320.469 276.458 325.959 274.564 330.006 271.191C334.052 267.818 336.326 263.244 336.326 258.474C336.326 253.705 334.052 249.13 330.006 245.758C325.959 242.384 320.469 240.489 314.745 240.489C309.024 240.495 303.539 242.391 299.492 245.763C295.447 249.134 293.17 253.706 293.163 258.474ZM326.427 258.474C326.427 261.056 325.196 263.532 323.006 265.358C320.815 267.183 317.844 268.209 314.745 268.209C311.648 268.209 308.677 267.183 306.486 265.358C304.295 263.532 303.064 261.056 303.064 258.474C303.064 255.893 304.295 253.416 306.486 251.59C308.676 249.764 311.648 248.74 314.745 248.74C317.835 248.75 320.794 249.78 322.975 251.606C325.153 253.43 326.377 255.9 326.377 258.474L326.427 258.474Z" fill="#85999F"/>
<path d="M386.683 240.489C380.958 240.489 375.47 242.384 371.422 245.758C367.375 249.13 365.102 253.705 365.102 258.474C365.102 263.244 367.375 267.818 371.422 271.191C375.47 274.564 380.958 276.458 386.683 276.458C392.406 276.458 397.896 274.564 401.942 271.191C405.991 267.818 408.265 263.244 408.265 258.474C408.258 253.706 405.982 249.134 401.936 245.763C397.891 242.391 392.405 240.495 386.683 240.489ZM386.683 268.209C383.584 268.209 380.613 267.184 378.423 265.358C376.232 263.532 375.001 261.056 375.001 258.474C375.001 255.893 376.232 253.416 378.423 251.59C380.613 249.765 383.585 248.74 386.683 248.74C389.78 248.74 392.753 249.765 394.944 251.59C397.134 253.416 398.364 255.894 398.364 258.474C398.358 261.052 397.124 263.524 394.933 265.345C392.744 267.165 389.777 268.188 386.683 268.188L386.683 268.209Z" fill="#85999F"/>
<path d="M254.707 120.479H268.586H282.465L302.79 222.304C303.235 224.546 305.217 226.143 307.497 226.101H402.23C404.421 226.101 406.324 224.586 406.817 222.444L422.532 153.776C422.854 152.374 422.522 150.902 421.628 149.777C420.735 148.652 419.378 147.997 417.944 147.999H348.474C347.342 147.999 346.248 148.41 345.393 149.153L321.115 170.376C319.382 172.134 319.3 174.939 320.926 176.799C322.552 178.658 325.335 178.943 327.301 177.451L350.261 157.383H412.132L398.487 216.669H311.235L290.934 114.797C290.489 112.555 288.507 110.956 286.229 111.001H254.706C252.107 111.001 250 113.111 250 115.717C250 118.321 252.107 120.433 254.706 120.433L254.707 120.479Z" fill="#85999F"/>
</svg>
