<svg width="897" height="385" viewBox="0 0 897 385" fill="none" xmlns="http://www.w3.org/2000/svg">
<path fill-rule="evenodd" clip-rule="evenodd" d="M203.821 64.1721C214.655 64.1721 223.438 55.3891 223.438 44.5547C223.438 33.7204 214.655 24.9374 203.821 24.9374C192.987 24.9374 184.204 33.7204 184.204 44.5547C184.204 55.3891 192.987 64.1721 203.821 64.1721ZM203.821 72.817C219.43 72.817 232.083 60.1636 232.083 44.5547C232.083 28.9459 219.43 16.2925 203.821 16.2925C188.212 16.2925 175.559 28.9459 175.559 44.5547C175.559 60.1636 188.212 72.817 203.821 72.817Z" fill="#D0EDF5"/>
<path fill-rule="evenodd" clip-rule="evenodd" d="M224.105 29.5923L188.86 64.837L182.747 58.7241L217.992 23.4794L224.105 29.5923Z" fill="#D0EDF5"/>
<path fill-rule="evenodd" clip-rule="evenodd" d="M693.638 5.15371C697.606 -1.71789 707.524 -1.71791 711.491 5.1537L741.15 56.5245C745.118 63.3961 740.158 71.9856 732.224 71.9856H672.906C664.971 71.9856 660.012 63.3961 663.979 56.5245L693.638 5.15371ZM704.005 9.47617C703.365 8.36785 701.765 8.36784 701.125 9.47617L671.466 60.847C670.826 61.9553 671.626 63.3407 672.906 63.3407H732.224C733.503 63.3407 734.303 61.9553 733.663 60.847L704.005 9.47617Z" fill="#D0EDF5"/>
<path d="M700.01 24.6404C699.956 23.1801 701.125 21.9668 702.586 21.9668V21.9668C704.05 21.9668 705.22 23.1835 705.163 24.6457L704.437 43.1638C704.398 44.168 703.572 44.9619 702.567 44.9619V44.9619C701.561 44.9619 700.735 44.1658 700.697 43.16L700.01 24.6404ZM702.613 57.8543C701.728 57.8543 700.985 57.5663 700.385 56.9902C699.785 56.3821 699.484 55.646 699.484 54.7819C699.484 53.9178 699.785 53.1977 700.385 52.6216C700.985 52.0135 701.728 51.7095 702.613 51.7095C703.498 51.7095 704.225 52.0135 704.793 52.6216C705.362 53.1977 705.647 53.9178 705.647 54.7819C705.647 55.646 705.346 56.3821 704.746 56.9902C704.177 57.5663 703.466 57.8543 702.613 57.8543Z" fill="#D0EDF5"/>
<path fill-rule="evenodd" clip-rule="evenodd" d="M698.984 58.4115L698.965 58.3923C697.992 57.4062 697.489 56.1645 697.489 54.7823C697.489 53.4072 697.988 52.1668 698.984 51.2012C699.971 50.2114 701.224 49.7149 702.613 49.7149C704.002 49.7149 705.262 50.2139 706.232 51.2395C707.183 52.2128 707.642 53.4413 707.642 54.7823C707.642 56.1645 707.139 57.4062 706.165 58.3923C705.2 59.3702 703.967 59.8497 702.613 59.8497C701.249 59.8497 700.001 59.3868 699.004 58.4301L698.984 58.4115ZM704.793 52.622C704.224 52.0139 703.498 51.7099 702.613 51.7099C701.728 51.7099 700.985 52.0139 700.385 52.622C699.784 53.1981 699.484 53.9182 699.484 54.7823C699.484 55.6464 699.784 56.3825 700.385 56.9906C700.985 57.5666 701.728 57.8547 702.613 57.8547C703.466 57.8547 704.177 57.5666 704.746 56.9906C705.346 56.3825 705.647 55.6464 705.647 54.7823C705.647 53.9182 705.362 53.1981 704.793 52.622ZM707.156 24.7242L706.431 43.2423C706.349 45.3171 704.644 46.9572 702.567 46.9572C700.488 46.9572 698.781 45.3124 698.704 43.2343L698.016 24.7147C697.92 22.1244 699.994 19.9722 702.586 19.9722C705.182 19.9722 707.257 22.1303 707.156 24.7242ZM702.586 21.9672C701.125 21.9672 699.956 23.1805 700.01 24.6408L700.697 43.1603C700.735 44.1661 701.561 44.9622 702.567 44.9622C703.572 44.9622 704.398 44.1684 704.437 43.1642L705.162 24.6461C705.22 23.1838 704.05 21.9672 702.586 21.9672Z" fill="#D0EDF5"/>
<path fill-rule="evenodd" clip-rule="evenodd" d="M0 136.324C0 133.202 2.53069 130.671 5.65245 130.671H41.5622C44.6839 130.671 47.2146 133.202 47.2146 136.324C47.2146 139.446 44.6839 141.976 41.5622 141.976H5.65245C2.53069 141.976 0 139.446 0 136.324Z" fill="#D0EDF5"/>
<path fill-rule="evenodd" clip-rule="evenodd" d="M678.959 376.387C678.959 373.265 681.49 370.734 684.611 370.734H720.521C723.643 370.734 726.174 373.265 726.174 376.387C726.174 379.509 723.643 382.039 720.521 382.039H684.611C681.49 382.039 678.959 379.509 678.959 376.387Z" fill="#D0EDF5"/>
<path fill-rule="evenodd" clip-rule="evenodd" d="M138.324 270.978C140.532 268.771 144.111 268.771 146.318 270.978L176.229 300.889C178.437 303.097 178.437 306.676 176.229 308.883C174.022 311.09 170.443 311.09 168.235 308.883L138.324 278.972C136.117 276.765 136.117 273.186 138.324 270.978Z" fill="#D0EDF5"/>
<path fill-rule="evenodd" clip-rule="evenodd" d="M176.618 270.978C174.411 268.771 170.832 268.771 168.624 270.978L138.713 300.889C136.506 303.097 136.506 306.676 138.713 308.883C140.921 311.09 144.5 311.09 146.707 308.883L176.618 278.972C178.825 276.765 178.825 273.186 176.618 270.978Z" fill="#D0EDF5"/>
<path fill-rule="evenodd" clip-rule="evenodd" d="M300.644 375.457C323.231 375.457 341.541 357.147 341.541 334.56C341.541 311.973 323.231 293.663 300.644 293.663C278.057 293.663 259.746 311.973 259.746 334.56C259.746 357.147 278.057 375.457 300.644 375.457ZM300.644 384.102C328.005 384.102 350.186 361.921 350.186 334.56C350.186 307.199 328.005 285.018 300.644 285.018C273.282 285.018 251.102 307.199 251.102 334.56C251.102 361.921 273.282 384.102 300.644 384.102Z" fill="#D0EDF5"/>
<path fill-rule="evenodd" clip-rule="evenodd" d="M285.883 320.061C287.83 318.114 290.988 318.114 292.936 320.061L315.807 342.933C317.755 344.88 317.755 348.038 315.807 349.986C313.86 351.934 310.702 351.934 308.754 349.986L285.883 327.115C283.935 325.167 283.935 322.009 285.883 320.061Z" fill="#D0EDF5"/>
<path fill-rule="evenodd" clip-rule="evenodd" d="M315.371 320.061C313.424 318.114 310.266 318.114 308.318 320.061L285.447 342.933C283.499 344.88 283.499 348.038 285.447 349.986C287.394 351.934 290.552 351.934 292.5 349.986L315.371 327.115C317.319 325.167 317.319 322.009 315.371 320.061Z" fill="#D0EDF5"/>
<path fill-rule="evenodd" clip-rule="evenodd" d="M866.69 38.7005C868.638 36.7528 871.796 36.7528 873.743 38.7005L893.29 58.2469C895.238 60.1947 895.238 63.3525 893.29 65.3003C891.342 67.248 888.184 67.248 886.237 65.3003L866.69 45.7538C864.742 43.8061 864.742 40.6482 866.69 38.7005Z" fill="#D0EDF5"/>
<path fill-rule="evenodd" clip-rule="evenodd" d="M893.445 38.7005C891.497 36.7528 888.339 36.7528 886.391 38.7005L866.845 58.2469C864.897 60.1947 864.897 63.3525 866.845 65.3003C868.793 67.248 871.95 67.248 873.898 65.3003L893.445 45.7538C895.392 43.8061 895.392 40.6482 893.445 38.7005Z" fill="#D0EDF5"/>
<path d="M390.913 278.87C390.913 285.27 393.966 291.407 399.396 295.933C404.825 300.458 412.191 303 419.87 303C427.551 303 434.917 300.458 440.346 295.933C445.775 291.407 448.826 285.27 448.826 278.87C448.826 272.471 445.776 266.333 440.346 261.808C434.916 257.282 427.551 254.739 419.87 254.739C412.193 254.747 404.835 257.291 399.405 261.816C393.977 266.338 390.922 272.472 390.913 278.87ZM435.545 278.87C435.545 282.335 433.893 285.656 430.954 288.106C428.014 290.555 424.027 291.932 419.87 291.932C415.715 291.932 411.728 290.555 408.788 288.106C405.848 285.656 404.197 282.334 404.197 278.87C404.197 275.407 405.849 272.083 408.788 269.633C411.728 267.184 415.714 265.81 419.87 265.81C424.016 265.823 427.987 267.205 430.912 269.655C433.835 272.102 435.478 275.417 435.478 278.87L435.545 278.87Z" fill="#85999F"/>
<path d="M516.391 254.739C508.71 254.739 501.347 257.281 495.915 261.808C490.485 266.333 487.435 272.471 487.435 278.87C487.435 285.27 490.485 291.407 495.915 295.933C501.347 300.458 508.71 303 516.391 303C524.07 303 531.436 300.458 536.865 295.933C542.297 291.407 545.348 285.27 545.348 278.87C545.338 272.473 542.285 266.338 536.856 261.816C531.429 257.291 524.068 254.747 516.391 254.739ZM516.391 291.932C512.233 291.932 508.247 290.556 505.308 288.106C502.368 285.657 500.717 282.335 500.717 278.87C500.717 275.407 502.368 272.083 505.308 269.634C508.247 267.184 512.234 265.81 516.391 265.81C520.547 265.81 524.535 267.184 527.475 269.634C530.414 272.083 532.063 275.408 532.063 278.87C532.056 282.329 530.4 285.645 527.461 288.089C524.524 290.531 520.542 291.903 516.391 291.903L516.391 291.932Z" fill="#85999F"/>
<path d="M339.316 93.7178H357.938H376.56L403.83 230.34C404.427 233.348 407.087 235.491 410.145 235.434H537.251C540.191 235.434 542.745 233.401 543.405 230.527L564.491 138.393C564.922 136.513 564.478 134.538 563.278 133.028C562.08 131.518 560.259 130.64 558.335 130.642H465.126C463.607 130.642 462.138 131.194 460.991 132.192L428.417 160.666C426.092 163.026 425.981 166.789 428.163 169.285C430.345 171.779 434.079 172.16 436.717 170.159L467.523 143.233H550.536L532.229 222.779H415.161L387.922 86.095C387.325 83.0868 384.665 80.9416 381.609 81.0012H339.314C335.827 81.0012 333 83.8328 333 87.3286C333 90.8223 335.827 93.656 339.314 93.656L339.316 93.7178Z" fill="#85999F"/>
</svg>
