<svg width="262" height="233" viewBox="0 0 262 233" fill="none" xmlns="http://www.w3.org/2000/svg">
<path fill-rule="evenodd" clip-rule="evenodd" d="M86.6049 49.6601C91.0537 49.6601 94.6601 46.0537 94.6601 41.6049C94.6601 37.1562 91.0537 33.5497 86.6049 33.5497C82.1562 33.5497 78.5497 37.1562 78.5497 41.6049C78.5497 46.0537 82.1562 49.6601 86.6049 49.6601ZM86.6049 53.2098C93.0141 53.2098 98.2098 48.0141 98.2098 41.6049C98.2098 35.1957 93.0141 30 86.6049 30C80.1957 30 75 35.1957 75 41.6049C75 48.0141 80.1957 53.2098 86.6049 53.2098Z" fill="#D0EDF5"/>
<path fill-rule="evenodd" clip-rule="evenodd" d="M94.9342 35.4623L80.4622 49.9344L77.9521 47.4243L92.4242 32.9523L94.9342 35.4623Z" fill="#D0EDF5"/>
<path fill-rule="evenodd" clip-rule="evenodd" d="M26.641 161.641C27.5474 160.735 29.017 160.735 29.9234 161.641L42.2053 173.923C43.1117 174.829 43.1117 176.299 42.2053 177.205C41.2989 178.112 39.8293 178.112 38.9229 177.205L26.641 164.924C25.7346 164.017 25.7346 162.548 26.641 161.641Z" fill="#D0EDF5"/>
<path fill-rule="evenodd" clip-rule="evenodd" d="M42.3668 161.641C41.4604 160.735 39.9908 160.735 39.0844 161.641L26.8025 173.923C25.8961 174.829 25.8961 176.299 26.8025 177.205C27.7089 178.112 29.1785 178.112 30.0849 177.205L42.3668 164.924C43.2732 164.017 43.2732 162.548 42.3668 161.641Z" fill="#D0EDF5"/>
<path fill-rule="evenodd" clip-rule="evenodd" d="M0 79C0 77.8954 1.01839 77 2.27465 77H16.7254C17.9816 77 19 77.8954 19 79C19 80.1046 17.9816 81 16.7254 81H2.27465C1.01839 81 0 80.1046 0 79Z" fill="#D0EDF5"/>
<path fill-rule="evenodd" clip-rule="evenodd" d="M208.752 2.11619C210.381 -0.705394 214.453 -0.7054 216.082 2.11619L228.261 23.2098C229.89 26.0314 227.854 29.5584 224.596 29.5584H200.239C196.981 29.5584 194.944 26.0314 196.573 23.2098L208.752 2.11619ZM213.008 3.89106C212.746 3.43597 212.089 3.43597 211.826 3.89106L199.648 24.9847C199.385 25.4398 199.713 26.0087 200.239 26.0087H224.596C225.121 26.0087 225.449 25.4398 225.187 24.9847L213.008 3.89106Z" fill="#D0EDF5"/>
<path d="M211.371 10.1174C211.349 9.51775 211.829 9.01953 212.429 9.01953V9.01953C213.03 9.01953 213.51 9.51911 213.487 10.1195L213.189 17.7234C213.173 18.1357 212.834 18.4617 212.421 18.4617V18.4617C212.008 18.4617 211.669 18.1348 211.653 17.7218L211.371 10.1174ZM212.44 23.7555C212.077 23.7555 211.772 23.6372 211.525 23.4007C211.279 23.151 211.155 22.8487 211.155 22.4939C211.155 22.1391 211.279 21.8434 211.525 21.6069C211.772 21.3572 212.077 21.2323 212.44 21.2323C212.803 21.2323 213.102 21.3572 213.335 21.6069C213.569 21.8434 213.686 22.1391 213.686 22.4939C213.686 22.8487 213.562 23.151 213.316 23.4007C213.082 23.6372 212.79 23.7555 212.44 23.7555Z" fill="#D0EDF5"/>
<path fill-rule="evenodd" clip-rule="evenodd" d="M210.947 23.9844L210.939 23.9766C210.539 23.5717 210.333 23.0618 210.333 22.4942C210.333 21.9296 210.538 21.4203 210.947 21.0238C211.352 20.6174 211.867 20.4135 212.437 20.4135C213.007 20.4135 213.525 20.6184 213.923 21.0395C214.313 21.4392 214.502 21.9436 214.502 22.4942C214.502 23.0618 214.295 23.5717 213.896 23.9766C213.499 24.3781 212.993 24.575 212.437 24.575C211.877 24.575 211.364 24.3849 210.955 23.9921L210.947 23.9844ZM213.332 21.6072C213.099 21.3575 212.8 21.2327 212.437 21.2327C212.073 21.2327 211.769 21.3575 211.522 21.6072C211.275 21.8437 211.152 22.1394 211.152 22.4942C211.152 22.8491 211.275 23.1513 211.522 23.401C211.769 23.6376 212.073 23.7558 212.437 23.7558C212.787 23.7558 213.079 23.6376 213.313 23.401C213.559 23.1513 213.683 22.8491 213.683 22.4942C213.683 22.1394 213.566 21.8437 213.332 21.6072ZM214.302 10.1519L214.004 17.7557C213.971 18.6077 213.271 19.2812 212.418 19.2812C211.564 19.2812 210.863 18.6058 210.832 17.7525L210.549 10.1481C210.51 9.08444 211.362 8.20068 212.426 8.20068C213.492 8.20068 214.344 9.08686 214.302 10.1519ZM212.426 9.01985C211.826 9.01985 211.346 9.51807 211.368 10.1177L211.65 17.7221C211.666 18.1351 212.005 18.462 212.418 18.462C212.831 18.462 213.17 18.136 213.186 17.7237L213.484 10.1199C213.507 9.51944 213.027 9.01985 212.426 9.01985Z" fill="#D0EDF5"/>
<path fill-rule="evenodd" clip-rule="evenodd" d="M114.343 229.136C123.617 229.136 131.136 221.617 131.136 212.343C131.136 203.068 123.617 195.55 114.343 195.55C105.068 195.55 97.5497 203.068 97.5497 212.343C97.5497 221.617 105.068 229.136 114.343 229.136ZM114.343 232.685C125.578 232.685 134.685 223.578 134.685 212.343C134.685 201.108 125.578 192 114.343 192C103.108 192 94 201.108 94 212.343C94 223.578 103.108 232.685 114.343 232.685Z" fill="#D0EDF5"/>
<path fill-rule="evenodd" clip-rule="evenodd" d="M108.283 206.39C109.083 205.59 110.38 205.59 111.18 206.39L120.571 215.781C121.371 216.581 121.371 217.877 120.571 218.677C119.771 219.477 118.474 219.477 117.675 218.677L108.283 209.286C107.484 208.486 107.484 207.189 108.283 206.39Z" fill="#D0EDF5"/>
<path fill-rule="evenodd" clip-rule="evenodd" d="M120.391 206.39C119.592 205.59 118.295 205.59 117.495 206.39L108.104 215.781C107.304 216.581 107.304 217.877 108.104 218.677C108.904 219.477 110.2 219.477 111 218.677L120.391 209.286C121.191 208.486 121.191 207.189 120.391 206.39Z" fill="#D0EDF5"/>
<path fill-rule="evenodd" clip-rule="evenodd" d="M229 171C229 169.895 230.018 169 231.275 169H245.725C246.982 169 248 169.895 248 171C248 172.105 246.982 173 245.725 173H231.275C230.018 173 229 172.105 229 171Z" fill="#D0EDF5"/>
<path fill-rule="evenodd" clip-rule="evenodd" d="M249.448 93.4481C250.248 92.6483 251.545 92.6483 252.345 93.4481L260.371 101.474C261.17 102.274 261.17 103.571 260.371 104.37C259.571 105.17 258.274 105.17 257.474 104.37L249.448 96.3443C248.649 95.5445 248.649 94.2479 249.448 93.4481Z" fill="#D0EDF5"/>
<path fill-rule="evenodd" clip-rule="evenodd" d="M260.433 93.4481C259.634 92.6483 258.337 92.6483 257.537 93.4481L249.511 101.474C248.711 102.274 248.711 103.571 249.511 104.37C250.311 105.17 251.608 105.17 252.407 104.37L260.433 96.3443C261.233 95.5445 261.233 94.2479 260.433 93.4481Z" fill="#D0EDF5"/>
<path d="M109.652 148.979C109.652 151.372 110.794 153.666 112.824 155.358C114.854 157.05 117.608 158.001 120.478 158.001C123.35 158.001 126.104 157.05 128.134 155.358C130.164 153.666 131.305 151.372 131.305 148.979C131.305 146.586 130.164 144.291 128.134 142.6C126.104 140.908 123.35 139.957 120.478 139.957C117.609 139.96 114.857 140.911 112.827 142.603C110.798 144.294 109.656 146.587 109.652 148.979ZM126.339 148.979C126.339 150.274 125.721 151.516 124.622 152.432C123.523 153.348 122.033 153.862 120.479 153.862C118.925 153.862 117.435 153.348 116.335 152.432C115.236 151.516 114.619 150.274 114.619 148.979C114.619 147.684 115.236 146.441 116.335 145.526C117.434 144.61 118.925 144.096 120.479 144.096C122.029 144.101 123.513 144.618 124.607 145.534C125.7 146.449 126.314 147.688 126.314 148.979L126.339 148.979Z" fill="#85999F"/>
<path d="M156.565 139.957C153.694 139.957 150.941 140.907 148.91 142.6C146.88 144.291 145.739 146.586 145.739 148.979C145.739 151.372 146.88 153.666 148.91 155.358C150.941 157.05 153.694 158.001 156.565 158.001C159.436 158.001 162.19 157.05 164.22 155.358C166.251 153.666 167.391 151.372 167.391 148.979C167.388 146.587 166.247 144.294 164.217 142.603C162.188 140.911 159.435 139.96 156.565 139.957ZM156.565 153.862C155.011 153.862 153.521 153.348 152.422 152.432C151.323 151.516 150.705 150.274 150.705 148.979C150.705 147.684 151.323 146.442 152.422 145.526C153.521 144.61 155.011 144.096 156.565 144.096C158.119 144.096 159.61 144.61 160.709 145.526C161.808 146.442 162.425 147.684 162.425 148.979C162.422 150.272 161.803 151.512 160.704 152.426C159.606 153.339 158.117 153.852 156.565 153.852L156.565 153.862Z" fill="#85999F"/>
<path d="M90.3612 79.7549H97.3235H104.286L114.482 130.834C114.705 131.959 115.699 132.76 116.842 132.739H164.364C165.463 132.739 166.418 131.979 166.665 130.904L174.548 96.4579C174.71 95.7548 174.543 95.0163 174.095 94.4519C173.647 93.8875 172.966 93.5591 172.247 93.5599H137.398C136.83 93.5599 136.281 93.7662 135.852 94.1392L123.674 104.785C122.804 105.667 122.763 107.074 123.579 108.007C124.395 108.94 125.791 109.082 126.777 108.334L138.295 98.2674H169.331L162.487 128.008H118.718L108.534 76.9049C108.311 75.7802 107.316 74.9782 106.174 75.0005H90.3608C89.0569 75.0005 88 76.0591 88 77.3661C88 78.6723 89.0569 79.7318 90.3608 79.7318L90.3612 79.7549Z" fill="#85999F"/>
</svg>
