<svg width="20" height="20" viewBox="0 0 20 20" fill="none" xmlns="http://www.w3.org/2000/svg">
<g clip-path="url(#clip0_206_776)">
<path d="M19.7882 5.92744C19.9647 6.14808 20.0308 6.41285 19.9868 6.72175L19.1483 11.5317C19.1189 11.7819 19.0049 11.9877 18.8064 12.1495C18.6078 12.3113 18.3835 12.3922 18.1334 12.3922H5.9099L5.6672 13.7602H17.3171C17.5965 13.7602 17.8391 13.8595 18.0451 14.0581C18.2511 14.2567 18.354 14.503 18.354 14.7972C18.354 15.0914 18.2511 15.3378 18.0451 15.5364C17.8391 15.735 17.5965 15.8342 17.3171 15.8342H4.43161C4.12271 15.8342 3.85794 15.7092 3.6373 15.4593C3.43137 15.2091 3.35047 14.9223 3.3946 14.5988L3.9462 11.5981L3.10777 3.1695L0.724846 2.41933C0.445367 2.33107 0.243113 2.16188 0.118084 1.91185C-0.00694609 1.66176 -0.0326875 1.39702 0.0408594 1.11755C0.129116 0.838068 0.301951 0.635814 0.559365 0.510784C0.816779 0.385754 1.07787 0.360013 1.34264 0.43356L4.38748 1.40438C4.5787 1.46322 4.73683 1.57354 4.86186 1.73534C4.98689 1.89714 5.06411 2.08105 5.09353 2.28698L5.27004 3.96385L19.0822 5.50833C19.3911 5.55235 19.6264 5.69209 19.7882 5.92744ZM5.99819 16.4079C6.43948 16.4079 6.81457 16.5624 7.12346 16.8713C7.43236 17.1801 7.58681 17.5553 7.58681 17.9966C7.58681 18.4378 7.43236 18.8166 7.12346 19.1329C6.81457 19.4491 6.43948 19.6073 5.99819 19.6073C5.55691 19.6073 5.18182 19.4491 4.87293 19.1329C4.56403 18.8167 4.40958 18.4379 4.40958 17.9966C4.40958 17.5553 4.56403 17.1802 4.87293 16.8713C5.18179 16.5624 5.55688 16.4079 5.99819 16.4079ZM15.4195 16.4079C15.8607 16.4079 16.2359 16.5624 16.5448 16.8713C16.8536 17.1801 17.0082 17.5553 17.0082 17.9966C17.0082 18.4378 16.8537 18.8166 16.5448 19.1329C16.2359 19.4491 15.8607 19.6073 15.4195 19.6073C14.9782 19.6073 14.6031 19.4491 14.2943 19.1329C13.9854 18.8167 13.8308 18.4379 13.8308 17.9966C13.8308 17.5553 13.9853 17.1802 14.2943 16.8713C14.6031 16.5624 14.9782 16.4079 15.4195 16.4079Z" fill="white"/>
</g>
<defs>
<clipPath id="clip0_206_776">
<rect width="20" height="20" fill="white"/>
</clipPath>
</defs>
</svg>
