<svg width="19" height="20" viewBox="0 0 19 20" fill="none" xmlns="http://www.w3.org/2000/svg">
<path fill-rule="evenodd" clip-rule="evenodd" d="M8.60296 2.72874C4.86981 2.72874 1.84349 5.75506 1.84349 9.48821C1.84349 13.2214 4.86981 16.2477 8.60296 16.2477C12.3361 16.2477 15.3624 13.2214 15.3624 9.48821C15.3624 5.75506 12.3361 2.72874 8.60296 2.72874ZM0 9.48821C0 4.73693 3.85167 0.885254 8.60296 0.885254C13.3542 0.885254 17.2059 4.73693 17.2059 9.48821C17.2059 14.2395 13.3542 18.0912 8.60296 18.0912C3.85167 18.0912 0 14.2395 0 9.48821Z" fill="#404546"/>
<path fill-rule="evenodd" clip-rule="evenodd" d="M13.5825 14.4692C13.9424 14.1092 14.5261 14.1092 14.886 14.4692L17.9585 17.5417C18.3185 17.9016 18.3185 18.4853 17.9585 18.8452C17.5985 19.2052 17.0149 19.2052 16.655 18.8452L13.5825 15.7727C13.2225 15.4128 13.2225 14.8292 13.5825 14.4692Z" fill="#404546"/>
</svg>
