<svg width="23" height="23" viewBox="0 0 23 23" fill="none" xmlns="http://www.w3.org/2000/svg">
<path fill-rule="evenodd" clip-rule="evenodd" d="M10.4906 2.24798C5.93831 2.24798 2.24798 5.93831 2.24798 10.4906C2.24798 15.0428 5.93831 18.7331 10.4906 18.7331C15.0428 18.7331 18.7331 15.0428 18.7331 10.4906C18.7331 5.93831 15.0428 2.24798 10.4906 2.24798ZM0 10.4906C0 4.69678 4.69678 0 10.4906 0C16.2843 0 20.9811 4.69678 20.9811 10.4906C20.9811 16.2843 16.2843 20.9811 10.4906 20.9811C4.69678 20.9811 0 16.2843 0 10.4906Z" fill="#85999F"/>
<path fill-rule="evenodd" clip-rule="evenodd" d="M16.5636 16.5646C17.0025 16.1256 17.7142 16.1256 18.1531 16.5646L21.8998 20.3112C22.3387 20.7501 22.3387 21.4618 21.8998 21.9007C21.4608 22.3397 20.7492 22.3397 20.3102 21.9007L16.5636 18.1541C16.1246 17.7152 16.1246 17.0035 16.5636 16.5646Z" fill="#85999F"/>
</svg>
